<?xml version="1.0" encoding="utf-8"?>
<!-- Generator: Adobe Illustrator 16.0.0, SVG Export Plug-In . SVG Version: 6.00 Build 0)  -->
<!DOCTYPE svg PUBLIC "-//W3C//DTD SVG 1.1//EN" "http://www.w3.org/Graphics/SVG/1.1/DTD/svg11.dtd">
<svg version="1.1" id="Layer_1" xmlns="http://www.w3.org/2000/svg" xmlns:xlink="http://www.w3.org/1999/xlink" x="0px" y="0px"
	 width="700px" height="490px" viewBox="0 0 700 490" enable-background="new 0 0 700 490" xml:space="preserve">
<g>
	<g>
		<path fill="#EF7880" d="M269.9,222.6L287,222c0,0,2.6,2.8,3.8,8.7h-23.3L269.9,222.6z"/>
		<path fill="#303E5C" d="M290.8,231.7h-23.3c-0.3,0-0.6-0.2-0.8-0.4c-0.2-0.3-0.3-0.6-0.2-0.9l2.4-8.1c0.1-0.4,0.5-0.7,1-0.7
			L287,221c0.3,0,0.6,0.1,0.8,0.3c0.1,0.1,2.9,3.1,4.1,9.2c0.1,0.3,0,0.6-0.2,0.9S291.1,231.7,290.8,231.7z M268.9,229.6h20.6
			c-0.9-3.6-2.4-5.8-3-6.6l-15.9,0.6L268.9,229.6z"/>
	</g>
	<g>
		<ellipse fill="#FFFFFF" cx="277.9" cy="205.8" rx="18.2" ry="17.9"/>
		<path fill="#303E5C" d="M277.9,224.8c-10.6,0-19.2-8.5-19.2-19c0-10.5,8.6-19,19.2-19s19.2,8.5,19.2,19
			C297.1,216.2,288.5,224.8,277.9,224.8z M277.9,188.9c-9.4,0-17.1,7.6-17.1,16.9s7.7,16.9,17.1,16.9s17.1-7.6,17.1-16.9
			S287.4,188.9,277.9,188.9z"/>
	</g>
	<g>
		<path fill="#FFFFFF" d="M273.2,205.2c0,1.9,1.3,4-0.6,4.6c-1.6,0.5-4.1-2.8-4.1-4.6c0-1.9,1.4-3.4,3.1-3.4
			S273.2,203.4,273.2,205.2z"/>
		<path fill="#303E5C" d="M272.1,210.9c-2.4,0-4.7-3.7-4.7-5.7c0-2.4,1.9-4.4,4.2-4.4c0.8,0,1.4,0.2,1.8,0.7
			c0.8,0.8,0.8,2.1,0.8,3.4l0,0.4c0,0.5,0.1,1,0.2,1.5c0.2,1.3,0.7,3.4-1.5,4.1C272.6,210.9,272.4,210.9,272.1,210.9z M271.6,202.9
			c-1.2,0-2.1,1-2.1,2.3c0,1.4,1.8,3.6,2.7,3.6c0,0,0,0,0.1,0c0.3-0.1,0.5-0.2,0.2-1.8c-0.1-0.6-0.2-1.2-0.2-1.9l0-0.4
			c0-0.7,0-1.7-0.2-1.9C271.9,202.9,271.8,202.9,271.6,202.9z"/>
	</g>
	<g>
		<g>
			<path fill="#303E5C" d="M291.7,204.5c0-0.1,0.1-0.2,0.1-0.2c0-0.5-0.2-0.8-0.5-1.1c-0.9-0.8-2.8-0.6-4.4-0.5
				c-0.5,0-1.2,0.1-1.5,0.1c-0.2-0.1-0.5-0.2-0.7,0c-0.3,0.2-0.3,0.6-0.1,0.8c0.4,0.4,1,0.4,2.4,0.2c0.3,0,0.6-0.1,0.9-0.1
				c-0.2,0.4-0.3,0.8-0.3,1.3c0,1.3,0.9,2.4,2.1,2.4c1.2,0,2.1-1.1,2.1-2.4C291.8,204.9,291.7,204.7,291.7,204.5z"/>
		</g>
		<g>
			<path fill="#FFF2F2" d="M290.8,205.3c0,0.5-0.3,0.9-0.6,0.9c-0.3,0-0.6-0.4-0.6-0.9s0.3-0.9,0.6-0.9
				C290.5,204.4,290.8,204.8,290.8,205.3z"/>
		</g>
	</g>
	<g>
		<path fill="#303E5C" d="M288.2,217.3c-0.9-0.3-1.7-0.8-2.2-1.4c-0.8-1-0.7-2-0.4-2.6c0.1-0.3,0.3-0.5,0.5-0.4
			c0.2,0.1,0.2,0.3,0.1,0.6c-0.4,1,0.7,2.2,2.4,2.8c1.7,0.6,3.4,0.3,3.7-0.7c0.1-0.3,0.3-0.5,0.5-0.4c0.2,0.1,0.2,0.3,0.1,0.6
			C292.1,217.9,289.8,217.9,288.2,217.3z"/>
	</g>
	<g>
		<path fill="#F2B776" d="M286.3,184.4c-3.7-1.4-25.6-4-30.3,15.4c-2.1,8.7,1.9,20.7-4.8,27.8c-0.6,0.6-0.3,1.4,0.4,1.7
			c2.5,1,12.8,4.2,14.4,3.7c4.2-1.3,7.3-11.2,7.6-12c2.1-6.1,3.7-12.2,6.2-18.2c1.4-3.3,4.6-6.1,5.9-9.5c2.9,3.7,10.2-0.1,13.2,5.8
			C299.7,200.7,300,189.5,286.3,184.4z"/>
		<path fill="#303E5C" d="M265.6,234.1c-2.9,0-12.2-3-14.4-3.9c-0.7-0.3-1.2-0.8-1.3-1.5c-0.1-0.7,0-1.3,0.5-1.8
			c4-4.2,3.9-10.6,3.8-16.7c0-3.6-0.1-7.4,0.7-10.6c3.7-15.5,18-17.1,23.9-17.1c3.5,0,6.4,0.5,7.7,1c11.6,4.3,14.1,13.3,13.6,15.9
			c-0.2,1-1,1.1-1.1,1.1c0,0,0,0,0,0c-0.2,0-0.7-0.1-1-0.7c-1.4-2.8-4-3-6.7-3.2c-1.8-0.2-3.7-0.3-5.2-1.3c-0.7,1.3-1.6,2.6-2.6,3.8
			c-1.1,1.5-2.1,2.9-2.7,4.3c-1.6,3.8-2.9,7.9-4.1,11.7c-0.7,2.1-1.3,4.2-2.1,6.4l0,0.1c-1.4,4.1-4.3,11.3-8.2,12.5
			C266.2,234.1,265.9,234.1,265.6,234.1z M278.9,184.5c-6.8,0-18.7,2-21.9,15.6c-0.7,3-0.7,6.5-0.7,10.1c0.1,6.6,0.1,13.3-4.4,18.2
			c2.7,1,11.4,3.7,13.7,3.7c0.1,0,0.2,0,0.2,0c2.1-0.7,4.8-5,6.9-11.2l0-0.1c0.7-2.1,1.4-4.2,2.1-6.3c1.2-3.9,2.5-8,4.2-11.9
			c0.7-1.7,1.9-3.3,3-4.8c1.2-1.6,2.3-3.1,2.9-4.7c0.1-0.3,0.4-0.6,0.8-0.7c0.4-0.1,0.7,0.1,1,0.4c1,1.3,2.8,1.4,4.9,1.6
			c2,0.2,4.3,0.4,6.2,1.7c-1.1-3.1-4.1-7.9-11.8-10.8C285,185,282.3,184.5,278.9,184.5z"/>
	</g>
</g>
<g>
	<g>
		<g>
			<ellipse fill="#FFFFFF" cx="244.4" cy="208.3" rx="22.1" ry="17.7"/>
			<path fill="#303E5C" d="M244.4,227.1c-12.8,0-23.2-8.4-23.2-18.8c0-10.4,10.4-18.8,23.2-18.8c12.8,0,23.2,8.4,23.2,18.8
				C267.6,218.6,257.2,227.1,244.4,227.1z M244.4,191.6c-11.6,0-21.1,7.5-21.1,16.7c0,9.2,9.5,16.7,21.1,16.7
				c11.6,0,21.1-7.5,21.1-16.7C265.6,199.1,256.1,191.6,244.4,191.6z"/>
		</g>
		<g>
			<circle fill="#E9BFB3" cx="231" cy="216" r="1.9"/>
		</g>
		<g>
			<circle fill="#E9BFB3" cx="254.8" cy="216" r="1.9"/>
		</g>
		<g>
			<path fill="#C48E5F" d="M265.7,191.7c-5.3-6.1-16.5-9.5-28.2-5.4c0.3-2.8,2.8-1.9,2.8-1.9c-3.8-3-10.7,2.4-10.7,2.4l0.4-5.2
				c-6,2.3-3.7,8.4-3.7,8.4c-7.6-1.5-8,3.1-8,3.1c4.9-1.6,4.5,3.6,4.1,8.3c-2.5,7.1,1.4,12.7,1.4,12.7c-2.9-10.9,5.9-15.6,7.5-16.9
				c0,0,4.7,3.4,12.2,4.3l-4.5-5.5c1.7,0.3,10,7.9,15.3,6.5c0,0-3.9-4-2-3.7c2.4,0.3,8.9,5.2,8.9,5.2s-1.3-4.8-0.2-4.1
				c1.9,1.2,5.6,8.4,3.8,15.2c0,0,5.5-5.5,0.5-15.1c2.2,2.7,3.3,5.8,2.4,8.9C267.6,209,271.7,198.6,265.7,191.7z"/>
			<path fill="#303E5C" d="M264.7,216c-0.2,0-0.3,0-0.4-0.1c-0.4-0.2-0.5-0.6-0.4-1c1.3-5-0.6-10.4-2.2-12.9
				c0.1,0.5,0.3,1.2,0.4,1.7c0.1,0.4,0,0.8-0.4,1c-0.3,0.2-0.7,0.2-1.1,0c-2-1.5-5.2-3.7-7.3-4.6c0.4,0.5,1,1.2,1.5,1.8
				c0.2,0.2,0.3,0.6,0.2,0.9c-0.1,0.3-0.3,0.6-0.6,0.6c-0.5,0.1-1.1,0.2-1.7,0.2c-3.2,0-6.9-2.1-9.8-4l1.1,1.4
				c0.2,0.3,0.3,0.7,0.1,1c-0.2,0.3-0.5,0.5-0.9,0.5c-6.3-0.7-10.6-3.2-12.1-4.1c-0.1,0.1-0.1,0.1-0.2,0.2
				c-2.6,1.9-8.9,6.2-6.4,15.4c0.1,0.4-0.1,0.9-0.5,1.1c-0.4,0.2-0.9,0.1-1.1-0.3c-0.2-0.2-4.1-6-1.6-13.4c0.2-2.4,0.6-5.9-0.5-7
				c-0.2-0.2-0.5-0.4-1.1-0.4c-0.4,0-0.8,0.1-1.3,0.2c-0.3,0.1-0.6,0-0.8-0.2s-0.4-0.5-0.3-0.8c0.1-1.5,1.6-4.2,6.1-4.2
				c0.5,0,1,0,1.6,0.1c-0.2-1.2-0.3-2.9,0.5-4.5c0.7-1.6,2.1-2.9,4.1-3.6c0.3-0.1,0.6-0.1,0.9,0.1c0.2,0.2,0.4,0.5,0.4,0.8l-0.2,3.3
				c1.6-1,4.3-2.4,6.8-2.4c1.3,0,2.5,0.4,3.4,1.1c0.2,0.2,0.3,0.4,0.3,0.6c2.2-0.5,4.4-0.7,6.6-0.7c7.6,0,14.6,2.8,18.6,7.5
				c6.3,7.2,2.3,17.7,2.1,18.1c-0.1,0.2-0.2,0.3-0.4,0.4c-0.5,3.8-2.6,5.9-2.7,6C265.2,216,265,216,264.7,216z M260.8,198.9
				c0.2,0,0.5,0.1,0.7,0.2c1.7,1.1,4.4,5.9,4.7,11.4c0.6-2.4,0.5-5.8-1.7-10c-0.2-0.4-0.1-0.9,0.3-1.2c0.4-0.3,0.9-0.2,1.2,0.2
				c0.9,1.1,1.6,2.2,2.1,3.3c0.2-3.3-0.2-7.3-3-10.5c-3.7-4.3-10.2-6.9-17.3-6.9c-3.3,0-6.7,0.6-10,1.7c-0.3,0.1-0.6,0-0.9-0.2
				c-0.2-0.2-0.4-0.5-0.3-0.8c0.1-0.7,0.3-1.3,0.6-1.8c-3.2,0.1-7,3.1-7.1,3.1c-0.3,0.2-0.7,0.3-1,0.1c-0.3-0.2-0.5-0.5-0.5-0.9
				l0.3-3.6c-1.4,1-3.1,3-1.8,6.5c0.1,0.3,0.1,0.7-0.2,0.9c-0.2,0.2-0.5,0.4-0.9,0.3c-1-0.2-1.8-0.3-2.6-0.3c-2,0-3.1,0.6-3.7,1.3
				c1.1,0,1.9,0.3,2.5,1c1.5,1.6,1.3,4.8,0.9,8.5c0,0.1,0,0.1,0,0.2c-0.8,2.1-0.9,4.1-0.7,5.8c1-5.9,5.5-9.1,7.6-10.5
				c0.3-0.2,0.5-0.4,0.7-0.5c0.3-0.3,0.8-0.3,1.1,0c0,0,3.7,2.6,9.5,3.8l-3-3.7c-0.2-0.3-0.3-0.7-0.1-1c0.2-0.3,0.6-0.5,0.9-0.4
				c0.7,0.1,1.5,0.7,3.3,1.9c2.7,1.8,6.7,4.5,10,4.8c-1.8-2.2-1.5-2.9-1.4-3.2c0.2-0.4,0.6-0.7,1.2-0.7c0.1,0,0.2,0,0.3,0
				c1.7,0.2,5.1,2.5,7.3,4c-0.3-1.9,0-2.3,0.1-2.5C260.1,199.1,260.4,198.9,260.8,198.9z"/>
		</g>
		<g>
			<path fill="#303E5C" d="M247.2,216.2c-0.5,0-1,0.4-1,0.8c0,0.4-1.4,0.9-3.5,0.9s-3.5-0.6-3.5-0.9c0-0.5-0.4-0.8-1-0.8
				s-1,0.4-1,0.8c0,0.5,0.3,1.5,2,2.1c0.9,0.3,2.1,0.5,3.4,0.5c2.5,0,5.4-0.7,5.4-2.5C248.2,216.5,247.7,216.2,247.2,216.2z"/>
		</g>
		<g>
			<path fill="#303E5C" d="M238,210.3c-0.4,0-0.7-0.4-0.7-0.8c0-0.4-1-0.9-2.6-0.9c-1.5,0-2.6,0.6-2.6,0.9c0,0.5-0.3,0.8-0.7,0.8
				s-0.7-0.4-0.7-0.8c0-0.5,0.2-1.5,1.5-2.1c0.7-0.3,1.6-0.5,2.5-0.5c1.8,0,4,0.7,4,2.6C238.7,209.9,238.4,210.3,238,210.3z"/>
		</g>
		<g>
			<path fill="#303E5C" d="M256.3,210.3c-0.4,0-0.7-0.4-0.7-0.8c0-0.4-1-0.9-2.6-0.9s-2.6,0.6-2.6,0.9c0,0.5-0.3,0.8-0.7,0.8
				s-0.7-0.4-0.7-0.8c0-0.5,0.2-1.5,1.5-2.1c0.7-0.3,1.6-0.5,2.5-0.5c1.8,0,4,0.7,4,2.6C257,209.9,256.7,210.3,256.3,210.3z"/>
		</g>
		<g>
			<path fill="#303E5C" d="M259.4,191c-1.5-1.2-3.4-1.5-5.2-2c-0.6-0.1-0.8,0.7-0.2,0.9c1.7,0.5,3.3,1.1,4.9,1.9
				C259.3,191.9,259.9,191.3,259.4,191z"/>
		</g>
		<g>
			<path fill="#303E5C" d="M254.1,195.3c-2.7-3.6-6.6-3.8-10.4-5.5c-0.4-0.2-0.8,0.4-0.4,0.6c3.4,2.1,7.2,2.6,10,5.5
				C253.7,196.2,254.4,195.7,254.1,195.3z"/>
		</g>
	</g>
	<g>
		<path fill="#7392A2" d="M236.4,225.8c2.3,0.2,0,5.2,7.6,5.2c7.3,0,7.3-5.2,7.3-5.2c13.8-0.9,8.5,45.3,8.5,45.3l-32.9,0.1
			C227,271.2,222.7,224.9,236.4,225.8z"/>
		<path fill="#303E5C" d="M227,272.2c-0.5,0-1-0.4-1-0.9c-0.1-1.4-3.1-35.2,5.1-44.2c1.5-1.7,3.3-2.4,5.4-2.3
			c1.5,0.1,1.9,1.3,2.3,2.2c0.5,1.4,1.1,3,5.3,3c6.2,0,6.3-4,6.3-4.2c0-0.5,0.4-1,1-1c2.1-0.2,4,0.6,5.5,2.3
			c8.1,9,4.3,42.7,4.2,44.1c-0.1,0.5-0.5,0.9-1,0.9L227,272.2C227,272.2,227,272.2,227,272.2z M236,226.8c-1.3,0-2.4,0.5-3.4,1.6
			c-6.9,7.5-5,36.1-4.6,41.7l31-0.1c0.5-5.5,3-34-3.8-41.6c-0.9-1-1.9-1.5-3-1.6c-0.4,1.8-2.1,5.2-8.2,5.2c-5.7,0-6.6-2.7-7.2-4.4
			c-0.1-0.3-0.3-0.8-0.4-0.9C236.2,226.8,236.1,226.8,236,226.8z"/>
	</g>
</g>
<g>
	<g>
		<path fill="#504B45" d="M423.3,231.5c-0.7,1.8-2.2,2.9-3.3,2.5l0,0c-1.2-0.4-1.5-2.3-0.8-4.1l7.5-19.6c0.7-1.8,2.2-2.9,3.3-2.5
			l0,0c1.2,0.4,1.5,2.3,0.8,4.1L423.3,231.5z"/>
		<path fill="#303E5C" d="M420.5,235.1c-0.3,0-0.6-0.1-0.9-0.2c-1.7-0.7-2.3-3-1.4-5.4l7.5-19.6c0.7-1.9,2.2-3.2,3.7-3.2
			c0.3,0,0.6,0.1,0.9,0.2c1.7,0.7,2.3,3,1.4,5.4l-7.5,19.6C423.5,233.8,422,235.1,420.5,235.1z M429.5,208.8c-0.6,0-1.4,0.7-1.9,1.9
			l-7.5,19.6c-0.5,1.4-0.2,2.6,0.3,2.8c0.5,0.2,1.5-0.5,2.1-1.9l7.5-19.6c0.5-1.4,0.2-2.6-0.3-2.8
			C429.6,208.8,429.5,208.8,429.5,208.8z"/>
	</g>
	<g>
		<path fill="#FDB151" d="M337,184.7l-0.6,47h20.5c0,0,2.9-17-7.1-38.3C344.7,182.6,337,184.7,337,184.7z"/>
		<path fill="#303E5C" d="M357.8,232.7h-22.4l0.6-48.8l0.7-0.2c0.1,0,0.8-0.2,1.9-0.2c2.9,0,8.3,1.2,12.1,9.4
			c10.1,21.4,7.3,38.2,7.2,38.9L357.8,232.7z M337.4,230.7h18.6c0.4-3.6,1.4-18.8-7.2-36.9c-3.4-7.2-7.9-8.3-10.3-8.3
			c-0.2,0-0.4,0-0.6,0L337.4,230.7z"/>
	</g>
	<g>
		<path fill="#FDB151" d="M315.8,184.7l-0.6,47h20.5c0,0,2.9-17-7.1-38.3C323.6,182.6,315.8,184.7,315.8,184.7z"/>
		<path fill="#303E5C" d="M336.6,232.7h-22.4l0.6-48.8l0.7-0.2c0.1,0,0.8-0.2,1.9-0.2c2.9,0,8.3,1.2,12.1,9.4
			c10.1,21.4,7.3,38.2,7.2,38.9L336.6,232.7z M316.3,230.7h18.6c0.4-3.6,1.4-18.8-7.2-36.9c-3.4-7.2-7.9-8.3-10.3-8.3
			c-0.2,0-0.4,0-0.6,0L316.3,230.7z"/>
	</g>
	<g>
		<path fill="#FDB151" d="M203.5,198.6l-23.8,33h37.2c0,0,3.1-12-7.6-27C203.8,197.1,203.5,198.6,203.5,198.6z"/>
		<path fill="#303E5C" d="M217.6,232.7h-39.9l24.9-34.6c0.2-0.3,0.5-0.6,1-0.6c0.6,0,1.6,0,6.3,6.6c10.9,15.2,7.9,27.3,7.8,27.8
			L217.6,232.7z M181.6,230.7H216c0.4-2.8,1.2-13.1-7.6-25.4c-2.6-3.6-3.9-5-4.5-5.5L181.6,230.7z"/>
	</g>
	<g>
		<path fill="#817B73" d="M272.8,331.3c1.5-4.4,2.2-9.1,2.2-14.1c0-24.9-20.2-45.1-45.1-45.1s-45.1,20.2-45.1,45.1
			c0,4.9,0.8,9.6,2.2,14.1H272.8z"/>
		<path fill="#303E5C" d="M273.6,332.3h-87.1l-0.2-0.7c-1.5-4.6-2.3-9.5-2.3-14.4c0-25.4,20.7-46.1,46.1-46.1s46.1,20.7,46.1,46.1
			c0,4.9-0.8,9.7-2.3,14.4L273.6,332.3z M187.9,330.3h84.2c1.3-4.2,2-8.6,2-13.1c0-24.3-19.8-44.1-44.1-44.1s-44.1,19.8-44.1,44.1
			C185.9,321.7,186.6,326.1,187.9,330.3z"/>
	</g>
	<g>
		<circle fill="#504B45" cx="230" cy="317.3" r="37.6"/>
		<path fill="#303E5C" d="M230,355.8c-21.3,0-38.6-17.3-38.6-38.6c0-21.3,17.3-38.6,38.6-38.6s38.6,17.3,38.6,38.6
			C268.6,338.5,251.3,355.8,230,355.8z M230,280.7c-20.2,0-36.6,16.4-36.6,36.6c0,20.2,16.4,36.6,36.6,36.6s36.6-16.4,36.6-36.6
			C266.6,297.1,250.2,280.7,230,280.7z"/>
	</g>
	<g>
		<circle fill="#FFEEDC" cx="230" cy="317.3" r="16.7"/>
		<path fill="#303E5C" d="M230,334.9c-9.7,0-17.7-7.9-17.7-17.7s7.9-17.7,17.7-17.7s17.7,7.9,17.7,17.7S239.8,334.9,230,334.9z
			 M230,301.6c-8.6,0-15.7,7-15.7,15.7s7,15.7,15.7,15.7c8.6,0,15.7-7,15.7-15.7S238.7,301.6,230,301.6z"/>
	</g>
	<g>
		<line fill="#FFEEDC" x1="230" y1="300.6" x2="230" y2="333.9"/>
		<rect x="229" y="300.6" fill="#303E5C" width="2" height="33.4"/>
	</g>
	<g>
		<line fill="#FFEEDC" x1="218.2" y1="305.5" x2="241.8" y2="329.1"/>
		
			<rect x="213.3" y="316.3" transform="matrix(0.7071 0.7071 -0.7071 0.7071 291.7151 -69.7196)" fill="#303E5C" width="33.4" height="2"/>
	</g>
	<g>
		<line fill="#FFEEDC" x1="213.3" y1="317.3" x2="246.7" y2="317.3"/>
		<rect x="213.3" y="316.3" fill="#303E5C" width="33.4" height="2"/>
	</g>
	<g>
		<line fill="#FFEEDC" x1="218.2" y1="329.1" x2="241.8" y2="305.5"/>
		
			<rect x="229" y="300.6" transform="matrix(0.7071 0.7071 -0.7071 0.7071 291.7148 -69.7189)" fill="#303E5C" width="2" height="33.4"/>
	</g>
	<g>
		<path fill="#817B73" d="M556.8,331.3c1.5-4.4,2.2-9.1,2.2-14.1c0-24.9-20.2-45.1-45.1-45.1s-45.1,20.2-45.1,45.1
			c0,4.9,0.8,9.6,2.2,14.1H556.8z"/>
		<path fill="#303E5C" d="M557.6,332.3h-87.1l-0.2-0.7c-1.5-4.6-2.3-9.5-2.3-14.4c0-25.4,20.7-46.1,46.1-46.1s46.1,20.7,46.1,46.1
			c0,4.9-0.8,9.7-2.3,14.4L557.6,332.3z M471.9,330.3h84.2c1.3-4.2,2-8.6,2-13.1c0-24.3-19.8-44.1-44.1-44.1s-44.1,19.8-44.1,44.1
			C469.9,321.7,470.6,326.1,471.9,330.3z"/>
	</g>
	<g>
		<circle fill="#504B45" cx="514" cy="317.3" r="37.6"/>
		<path fill="#303E5C" d="M514,355.8c-21.3,0-38.6-17.3-38.6-38.6c0-21.3,17.3-38.6,38.6-38.6c21.3,0,38.6,17.3,38.6,38.6
			C552.6,338.5,535.3,355.8,514,355.8z M514,280.7c-20.2,0-36.6,16.4-36.6,36.6c0,20.2,16.4,36.6,36.6,36.6
			c20.2,0,36.6-16.4,36.6-36.6C550.6,297.1,534.2,280.7,514,280.7z"/>
	</g>
	<g>
		<circle fill="#FFEEDC" cx="514" cy="317.3" r="16.7"/>
		<path fill="#303E5C" d="M514,334.9c-9.7,0-17.7-7.9-17.7-17.7s7.9-17.7,17.7-17.7s17.7,7.9,17.7,17.7S523.8,334.9,514,334.9z
			 M514,301.6c-8.6,0-15.7,7-15.7,15.7s7,15.7,15.7,15.7s15.7-7,15.7-15.7S522.7,301.6,514,301.6z"/>
	</g>
	<g>
		<line fill="#FFEEDC" x1="514" y1="300.6" x2="514" y2="333.9"/>
		<rect x="513" y="300.6" fill="#303E5C" width="2" height="33.4"/>
	</g>
	<g>
		<line fill="#FFEEDC" x1="502.2" y1="305.5" x2="525.8" y2="329.1"/>
		
			<rect x="497.3" y="316.3" transform="matrix(0.7071 0.7071 -0.7071 0.7071 374.8968 -270.538)" fill="#303E5C" width="33.4" height="2"/>
	</g>
	<g>
		<line fill="#FFEEDC" x1="497.3" y1="317.3" x2="530.7" y2="317.3"/>
		<rect x="497.3" y="316.3" fill="#303E5C" width="33.4" height="2"/>
	</g>
	<g>
		<line fill="#FFEEDC" x1="502.2" y1="329.1" x2="525.8" y2="305.5"/>
		
			<rect x="513" y="300.6" transform="matrix(0.7071 0.7071 -0.7071 0.7071 374.8965 -270.5372)" fill="#303E5C" width="2" height="33.4"/>
	</g>
	<g>
		<path fill="#E13338" d="M599.3,290.6c-0.8-5.3-12.9-47.2-52.5-51.8s-70.3-6.9-70.3-6.9s-20.3-27.4-57.8-49.7
			c-23.6-14-139.3-41.3-221,5.3c-27.4,15.6-53.7,96.1-53.7,96.1l3.8,52.1c0,0,15.9,0,41.5,0c-2.6-5.7-4.1-11.9-4.1-18.6
			c0-24.7,20-44.8,44.8-44.8s44.8,20.1,44.8,44.8c0,6.6-1.5,12.9-4.1,18.6c63.6,0,140.6,0,202.6,0c-2.6-5.7-4.1-11.9-4.1-18.6
			c0-24.7,20-44.8,44.8-44.8s44.8,20.1,44.8,44.8c0,6.6-1.5,12.9-4.1,18.6c17.1,0,28.1,0,30.1,0C598.5,335.8,600.1,296,599.3,290.6z
			 M185.8,231.7c8-16.3,17.8-32.2,27.8-38c28.6-16.4,62-22.2,92.9-22.5v60.5H185.8z M315.5,231.7v-60.4c41.2,1,76.5,11.2,87.6,17.9
			c30.2,18,47.3,39.9,49.4,42.6H315.5z"/>
		<path fill="#303E5C" d="M584.8,336.8h-31.6l0.6-1.4c2.6-5.8,4-11.9,4-18.1c0-24.1-19.6-43.8-43.8-43.8
			c-24.1,0-43.8,19.6-43.8,43.8c0,6.3,1.3,12.4,4,18.1l0.6,1.4H269.2l0.6-1.4c2.6-5.8,4-11.9,4-18.1c0-24.1-19.6-43.8-43.8-43.8
			s-43.8,19.6-43.8,43.8c0,6.3,1.3,12.4,4,18.1l0.6,1.4h-44l-3.9-53.2l0.1-0.2c1.1-3.3,26.7-81,54.1-96.7
			c30-17.2,68.7-26.2,111.7-26.2c51.1,0,96,12.5,110.2,20.9c35,20.7,55.3,46.2,57.8,49.6c3.9,0.3,33.3,2.6,69.9,6.8
			c43.2,5,53.3,52.2,53.4,52.6c0.7,4.8-0.3,33.2-8.7,42.9C589.6,335.7,587.3,336.8,584.8,336.8z M556.3,334.8h28.6
			c1.9,0,3.6-0.9,5.2-2.7c7.9-9.1,8.9-36.9,8.3-41.3c-1.1-7.5-14.4-46.6-51.7-50.9c-39.1-4.5-70-6.8-70.3-6.8l-0.5,0l-0.3-0.4
			c-0.2-0.3-20.6-27.5-57.5-49.4c-14-8.3-58.5-20.6-109.2-20.6c-42.7,0-81,9-110.7,26c-26.1,14.9-51.7,91-53.2,95.4l3.7,50.9h39.1
			c-2.3-5.6-3.5-11.5-3.5-17.6c0-25.2,20.5-45.8,45.8-45.8s45.8,20.5,45.8,45.8c0,6-1.2,11.9-3.5,17.6h199.5
			c-2.3-5.6-3.5-11.5-3.5-17.6c0-25.2,20.5-45.8,45.8-45.8c25.2,0,45.8,20.5,45.8,45.8C559.8,323.3,558.6,329.2,556.3,334.8z
			 M454.6,232.7H314.5v-62.5l1,0c23.4,0.6,43,4,55.3,6.8c14.3,3.3,26.6,7.4,32.9,11.2c30.4,18.1,47.8,40.4,49.7,42.8L454.6,232.7z
			 M316.5,230.7h134c-4.8-5.9-21.3-24.9-47.9-40.7c-10.9-6.5-45.7-16.6-86.1-17.7V230.7z M307.5,232.7H184.2l0.7-1.4
			c10-20.5,19.5-33.4,28.2-38.4c25.5-14.7,57-22.3,93.4-22.7l1,0V232.7z M187.4,230.7h118.1v-58.5c-35.7,0.5-66.4,8-91.4,22.4
			C205.9,199.3,196.9,211.4,187.4,230.7z"/>
	</g>
	<g>
		<path fill="#C13D46" d="M274.5,317.3L274.5,317.3c0,6.6-1.5,12.9-4.1,18.6c63.6,0,140.6,0,202.6,0c-2.6-5.7-4.1-11.9-4.1-18.6v0
			H274.5z"/>
		<path fill="#303E5C" d="M474.5,336.8H268.9l0.6-1.4c2.6-5.8,4-11.9,4-18.1v-1l196.4,0v1c0,6.3,1.3,12.4,4,18.1L474.5,336.8z
			 M272,334.8h199.5c-2.2-5.3-3.4-10.9-3.5-16.6l-192.5,0C275.4,324,274.2,329.5,272,334.8z"/>
	</g>
	<g>
		<ellipse fill="#9E0D1B" cx="329.5" cy="248.7" rx="8.8" ry="6.9"/>
	</g>
	<g>
		<path fill="#C13D46" d="M340.6,245c0,1.9-1.6,3.5-3.5,3.5h-15.1c-1.9,0-3.5-1.6-3.5-3.5l0,0c0-1.9,1.6-3.5,3.5-3.5h15.1
			C339,241.5,340.6,243.1,340.6,245L340.6,245z"/>
		<path fill="#303E5C" d="M337.1,249.5h-15.1c-2.5,0-4.5-2-4.5-4.5s2-4.5,4.5-4.5h15.1c2.5,0,4.5,2,4.5,4.5S339.5,249.5,337.1,249.5
			z M321.9,242.5c-1.4,0-2.5,1.1-2.5,2.5c0,1.4,1.1,2.5,2.5,2.5h15.1c1.4,0,2.5-1.1,2.5-2.5c0-1.4-1.1-2.5-2.5-2.5H321.9z"/>
	</g>
	<g>
		<path fill="#C13D46" d="M185.2,317.3L185.2,317.3l-36.5,0c-5.3,0-9.8,3.7-9.8,9c0,5,3.1,9.2,8,9.6c0,0,28.9,0,42.3,0
			C186.7,330.2,185.2,323.9,185.2,317.3z"/>
		<path fill="#303E5C" d="M190.9,336.8H147c-5.3-0.4-9-4.8-9-10.6c0-5.7,4.6-10,10.8-10h37.5v1c0,6.3,1.3,12.4,4,18.1L190.9,336.8z
			 M148.8,318.3c-5,0-8.8,3.4-8.8,8c0,4.7,2.9,8.3,7.1,8.6l40.7,0c-2.2-5.3-3.4-10.9-3.5-16.6L148.8,318.3z"/>
	</g>
	<g>
		<path fill="#C13D46" d="M558.8,317.3L558.8,317.3l36.5,0c5.3,0,9.8,3.7,9.8,9c0,5-3.1,9.2-8,9.6c0,0-28.9,0-42.3,0
			C557.3,330.2,558.8,323.9,558.8,317.3z"/>
		<path fill="#303E5C" d="M597.1,336.8h-43.9l0.6-1.4c2.6-5.8,4-11.9,4-18.1v-1l37.5,0c6.1,0,10.8,4.3,10.8,10
			C606.1,332,602.4,336.4,597.1,336.8L597.1,336.8z M556.3,334.8H597c4.2-0.4,7.1-3.9,7.1-8.6c0-4.5-3.8-8-8.8-8h-35.5
			C559.7,324,558.5,329.5,556.3,334.8z"/>
	</g>
	<g>
		<path fill="#FDB151" d="M585.1,289.1v10.5c0,3.3,5.4,5.9,12,5.9c0.6,0,1.2,0,1.8-0.1c0.7-7,0.7-13,0.4-14.8
			c-0.2-1.1-0.8-3.8-2.1-7.5c0,0-0.1,0-0.1,0C590.5,283.2,585.1,285.8,585.1,289.1z"/>
		<path fill="#303E5C" d="M597.1,306.5c-7.3,0-13-3-13-6.9v-10.5c0-3.9,5.7-6.9,13-6.9h0.7l0.3,0.7c1.2,3.5,2,6.3,2.2,7.6
			c0.3,2.1,0.2,8.3-0.4,15l-0.1,0.8l-0.8,0.1C598.2,306.5,597.6,306.5,597.1,306.5z M596.5,284.2c-6.2,0.2-10.4,2.7-10.4,4.9v10.5
			c0,2.3,4.5,4.9,11,4.9c0.3,0,0.6,0,0.9,0c0.6-6.7,0.6-12.1,0.4-13.7C598.1,289.7,597.5,287.2,596.5,284.2z"/>
	</g>
	<g>
		<path fill="#FDB151" d="M152.8,310.2l-1-10.5c-0.3-3.2-3.2-5.6-6.4-5.3c-0.2,0-0.4,0.1-0.7,0.1l1.6,22.1c0.3,0,0.7,0,1.1,0
			C150.7,316.3,153.1,313.4,152.8,310.2z"/>
		<path fill="#303E5C" d="M146.9,317.6c-0.2,0-0.4,0-0.7,0l-0.8-0.1l-1.7-23.9l0.9-0.2c0.3-0.1,0.5-0.1,0.8-0.1
			c3.9-0.4,7.1,2.5,7.5,6.2l1,10.5c0.2,1.8-0.4,3.6-1.6,5s-2.8,2.3-4.7,2.5C147.3,317.6,147.1,317.6,146.9,317.6z M145.8,295.3
			l1.5,20.3c0,0,0,0,0,0c1.3-0.1,2.5-0.7,3.3-1.7c0.8-1,1.2-2.3,1.1-3.6l-1-10.5c-0.2-2.5-2.3-4.5-4.9-4.5
			C145.9,295.3,145.9,295.3,145.8,295.3z"/>
	</g>
	<g>
		<path fill="#C13D46" d="M435.8,223h-7.5v25.5h7.5c6.6,0,12-5.4,12-12V235C447.8,228.4,442.4,223,435.8,223z"/>
		<path fill="#303E5C" d="M435.8,249.5h-8.5V222h8.5c7.2,0,13,5.8,13,13v1.5C448.8,243.7,442.9,249.5,435.8,249.5z M429.2,247.5h6.5
			c6.1,0,11-4.9,11-11V235c0-6.1-4.9-11-11-11h-6.5V247.5z"/>
	</g>
</g>
<g>
	<g>
		<path fill="#7392A2" d="M370.6,223.6l17.1-0.6c0,0,2.6,2.8,3.8,8.7h-23.3L370.6,223.6z"/>
		<path fill="#303E5C" d="M391.5,232.7h-23.3c-0.3,0-0.6-0.2-0.8-0.4s-0.3-0.6-0.2-0.9l2.4-8.1c0.1-0.4,0.5-0.7,1-0.7l17.1-0.6
			c0.3,0,0.6,0.1,0.8,0.3c0.1,0.1,2.9,3.1,4.1,9.2c0.1,0.3,0,0.6-0.2,0.9C392.1,232.6,391.8,232.7,391.5,232.7z M369.6,230.6h20.6
			c-0.9-3.6-2.4-5.8-3-6.6l-15.9,0.6L369.6,230.6z"/>
	</g>
	<g>
		<ellipse fill="#FFFFFF" cx="378.6" cy="206.8" rx="18.2" ry="17.9"/>
		<path fill="#303E5C" d="M378.6,225.7c-10.6,0-19.2-8.5-19.2-19c0-10.5,8.6-19,19.2-19s19.2,8.5,19.2,19
			C397.8,217.2,389.2,225.7,378.6,225.7z M378.6,189.9c-9.4,0-17.1,7.6-17.1,16.9s7.7,16.9,17.1,16.9s17.1-7.6,17.1-16.9
			S388,189.9,378.6,189.9z"/>
	</g>
	<g>
		<path fill="#C48E5F" d="M385.6,192.8c0,0-16.5,18-22.6,23.2c0,0-10.8-10.7-4.3-21.3c3.3-5.4,15.4-14.1,28.2-9.3
			c13.7,5.1,13.4,16.3,12.7,14.9C396.3,193.7,387.6,199.2,385.6,192.8z"/>
		<path fill="#303E5C" d="M363,216.9c-0.2,0-0.5-0.1-0.6-0.3c-0.1-0.1-11.2-11.3-4.4-22.4c2.8-4.6,11.3-11.1,21.3-11.1
			c2.7,0,5.4,0.5,8,1.5c12.5,4.7,13.8,14.2,13.5,15.8c-0.2,0.9-0.9,1-1,1c-0.2,0-0.6-0.1-0.9-0.6c-1.4-2.8-4-3-6.8-3.3
			c-2.5-0.2-5.2-0.4-6.7-2.9c-3.6,3.9-16.5,17.8-21.7,22.2C363.4,216.8,363.2,216.9,363,216.9z M379.3,184.9
			c-9.2,0-17.2,6.1-19.8,10.3c-5.2,8.5,1.5,17.2,3.6,19.6c6.4-5.7,21.7-22.4,21.9-22.5c0.2-0.2,0.5-0.3,0.9-0.3
			c0.3,0.1,0.6,0.3,0.7,0.6c0.8,2.5,2.7,2.8,5.7,3c2.1,0.2,4.5,0.4,6.4,1.9c-1-3.1-3.9-8.3-12-11.3
			C384.3,185.3,381.8,184.9,379.3,184.9z"/>
	</g>
	<g>
		<path fill="#FFFFFF" d="M373.8,206.2c0,1.9,1.3,4-0.6,4.6c-1.6,0.5-4.1-2.8-4.1-4.6c0-1.9,1.4-3.4,3.1-3.4
			S373.8,204.4,373.8,206.2z"/>
		<path fill="#303E5C" d="M372.8,211.9c-2.4,0-4.7-3.7-4.7-5.7c0-2.4,1.9-4.4,4.2-4.4c0.8,0,1.4,0.2,1.8,0.7
			c0.8,0.8,0.8,2.1,0.8,3.4l0,0.4c0,0.5,0.1,1,0.2,1.5c0.2,1.3,0.7,3.4-1.5,4.1C373.3,211.9,373.1,211.9,372.8,211.9z M372.2,203.9
			c-1.2,0-2.1,1-2.1,2.3c0,1.4,1.8,3.6,2.7,3.6c0,0,0,0,0.1,0c0.3-0.1,0.5-0.2,0.2-1.8c-0.1-0.6-0.2-1.2-0.2-1.9l0-0.4
			c0-0.7,0-1.7-0.2-1.9C372.6,203.9,372.5,203.9,372.2,203.9z"/>
	</g>
	<g>
		<g>
			<path fill="#303E5C" d="M392.4,205.5c0-0.1,0.1-0.2,0.1-0.2c0-0.5-0.2-0.8-0.5-1.1c-0.9-0.8-2.8-0.6-4.4-0.5
				c-0.5,0-1.2,0.1-1.5,0.1c-0.2-0.1-0.5-0.2-0.7,0c-0.3,0.2-0.3,0.6-0.1,0.8c0.4,0.4,1,0.4,2.4,0.2c0.3,0,0.6-0.1,0.9-0.1
				c-0.2,0.4-0.3,0.8-0.3,1.3c0,1.3,0.9,2.4,2.1,2.4c1.2,0,2.1-1.1,2.1-2.4C392.4,205.8,392.4,205.7,392.4,205.5z"/>
		</g>
		<g>
			<path fill="#FFF2F2" d="M391.5,206.3c0,0.5-0.3,0.9-0.6,0.9c-0.3,0-0.6-0.4-0.6-0.9s0.3-0.9,0.6-0.9
				C391.2,205.4,391.5,205.8,391.5,206.3z"/>
		</g>
	</g>
	<g>
		<path fill="#303E5C" d="M388.8,218.3c-0.9-0.3-1.7-0.8-2.2-1.4c-0.8-1-0.7-2-0.4-2.6c0.1-0.3,0.3-0.5,0.5-0.4
			c0.2,0.1,0.2,0.3,0.1,0.6c-0.4,1,0.7,2.2,2.4,2.8c1.7,0.6,3.4,0.3,3.7-0.7c0.1-0.3,0.3-0.5,0.5-0.4c0.2,0.1,0.2,0.3,0.1,0.6
			C392.7,218.9,390.5,218.9,388.8,218.3z"/>
	</g>
</g>
<g>
	<g>
		<polygon fill="#C3A754" points="336.6,222.1 353.7,221.5 356.9,231.7 334.6,231.7 		"/>
		<path fill="#303E5C" d="M356.9,232.7h-22.3c-0.3,0-0.6-0.1-0.8-0.4c-0.2-0.2-0.3-0.6-0.2-0.9l2-9.6c0.1-0.5,0.5-0.8,1-0.8
			l17.1-0.6c0.5,0,0.9,0.3,1,0.7l3.3,10.2c0.1,0.3,0,0.7-0.1,0.9S357.3,232.7,356.9,232.7z M335.9,230.6h19.7l-2.6-8.1l-15.5,0.5
			L335.9,230.6z"/>
	</g>
	<g>
		<ellipse fill="#FFFFFF" cx="344.6" cy="205.3" rx="18.2" ry="17.9"/>
		<path fill="#303E5C" d="M344.6,224.2c-10.6,0-19.2-8.5-19.2-19c0-10.5,8.6-19,19.2-19c10.6,0,19.2,8.5,19.2,19
			C363.8,215.7,355.2,224.2,344.6,224.2z M344.6,188.3c-9.4,0-17.1,7.6-17.1,16.9s7.7,16.9,17.1,16.9s17.1-7.6,17.1-16.9
			S354,188.3,344.6,188.3z"/>
	</g>
	<g>
		<path fill="#FFFFFF" d="M339.5,203.7c0,1.3,1.2,2.8-0.6,3.3c-1.5,0.4-3.8-2-3.8-3.3c0-1.3,1.3-2.4,2.9-2.4
			C339.6,201.3,339.5,202.4,339.5,203.7z"/>
		<path fill="#303E5C" d="M338.5,208.1c-2.1,0-4.5-2.6-4.5-4.4c0-1.9,1.8-3.4,3.9-3.4c0.8,0,1.4,0.2,1.8,0.6
			c0.7,0.7,0.7,1.6,0.7,2.5l0,0.3c0,0.3,0.1,0.6,0.2,0.9c0.2,0.8,0.7,2.8-1.5,3.3C338.9,208.1,338.7,208.1,338.5,208.1z M338,202.4
			c-1,0-1.9,0.6-1.9,1.4c0,0.6,1.5,2.3,2.4,2.3c0,0,0.1,0,0.1,0c0.2,0,0.2-0.1,0.2-0.1c0-0.1-0.1-0.5-0.2-0.7
			c-0.1-0.4-0.2-0.9-0.2-1.4l0-0.3c0-0.4,0-0.9-0.1-1.1C338.4,202.4,338.2,202.4,338,202.4z"/>
	</g>
	<g>
		<g>
			<path fill="#303E5C" d="M358.4,204c0-0.1,0.1-0.2,0.1-0.2c0-0.5-0.2-0.8-0.5-1.1c-0.9-0.8-2.8-0.6-4.4-0.5
				c-0.5,0-1.2,0.1-1.5,0.1c-0.2-0.1-0.5-0.2-0.7,0c-0.3,0.2-0.3,0.6-0.1,0.8c0.4,0.4,1,0.4,2.4,0.2c0.3,0,0.6-0.1,0.9-0.1
				c-0.2,0.4-0.3,0.8-0.3,1.3c0,1.3,0.9,2.4,2.1,2.4c1.2,0,2.1-1.1,2.1-2.4C358.4,204.3,358.4,204.2,358.4,204z"/>
		</g>
		<g>
			<path fill="#FFF2F2" d="M357.5,204.8c0,0.5-0.3,0.9-0.6,0.9c-0.3,0-0.6-0.4-0.6-0.9s0.3-0.9,0.6-0.9
				C357.2,203.9,357.5,204.3,357.5,204.8z"/>
		</g>
	</g>
	<g>
		<path fill="#303E5C" d="M354.8,216.8c-0.9-0.3-1.7-0.8-2.2-1.4c-0.8-1-0.7-2-0.4-2.6c0.1-0.3,0.3-0.5,0.5-0.4
			c0.2,0.1,0.2,0.3,0.1,0.6c-0.4,1,0.7,2.2,2.4,2.8c1.7,0.6,3.4,0.3,3.7-0.7c0.1-0.3,0.3-0.5,0.5-0.4c0.2,0.1,0.2,0.3,0.1,0.6
			C358.7,217.4,356.5,217.4,354.8,216.8z"/>
	</g>
	<g>
		<path fill="#504B45" d="M365.2,194.8c-0.5-1.1-1.1-2.1-1.7-3.1c0.1,0,0.3-0.1,0.5-0.1c0.5-0.1,0.9-0.7,0.7-1.2
			c-0.6-1.6-1.6-2.6-2.9-3.2c0.4-0.4,0.3-1.2-0.2-1.6c-1.2-0.7-2.3-1-3.5-1.2c0-0.4-0.1-0.8-0.5-1c-0.8-0.4-1.5-0.6-2.2-0.7
			c0.1-0.6-0.3-1.3-1-1.3c-1.8-0.1-3.4,0-5.1,0.3c0.3-0.4,0.5-0.8,0.8-1.3c0.6-0.6,0.2-1.8-0.7-1.7c-2.4,0.2-4.4,0.9-6,2.4
			c-0.1-0.1-0.1-0.2-0.2-0.4c-0.3-0.8-1.3-0.8-1.7-0.4c-3.3-1.1-6.8,0.3-7.2,3.7c-1.2-0.4-2.3-0.9-3.5-1.4c-0.9-0.4-1.9,0.4-1.4,1.4
			c0.4,0.6,0.8,1.2,1.2,1.8c-2.3,0.1-4.4,0.7-6.5,1.7c-0.7,0.3-0.6,1.4,0,1.7c0.1,0.1,0.2,0.1,0.3,0.2c-2.3,0.8-4.4,2.4-5.7,4.4
			c-0.6,0.9,0.5,1.9,1.4,1.4c0.9-0.5,1.8-0.8,2.7-1.1c-0.4,0.4-0.7,0.8-1,1.2c-1.5,2-1.8,4.7-2.1,7c-0.1,0.8,0.9,1.3,1.5,0.9
			c0.1-0.1,0.2-0.1,0.3-0.2c-0.6,1-1,2.2-1.3,3.4c-0.2,0.8,0.7,1.7,1.5,1.1c0.7-0.5,1.4-0.9,2.2-1.3c0,0,0,0,0,0
			c-0.3,0.9-0.7,1.8-0.9,2.8c-0.2,0.8,0.7,1.7,1.5,1.1c0.2-0.2,0.5-0.3,0.7-0.5c-0.4,1.1-0.6,2.1-0.2,3.4c0.1,0.4,0.5,0.7,1,0.7
			c-0.1,0.8,3.7,2,4.1,1.4c0.7-1,1.2-2.4,1.1-3.6c-0.4-3,7.4,0.1,4-5.6c-4.9-8.1,4.7-4.4,4.7-4.4c0,0,15.6-12.2,18.8-7.5
			c0,0.3,0.1,0.7,0.4,0.9c0.1,0.1,0.1,0.1,0.2,0.2c0.1,0.1,0.1,0.3,0.2,0.4c0.1,0.2,0.3,0.2,0.5,0.1c1.1,0.9,2.2,1.7,3.4,2.5
			c0.6,0.4,1.6-0.1,1.5-0.9c-0.1-0.6-0.1-1-0.2-1.3C365.2,195.9,365.4,195.3,365.2,194.8z"/>
		<path fill="#303E5C" d="M329.5,216.5c-1.1,0-3.3-0.6-4.1-1.5c-0.1-0.1-0.1-0.1-0.1-0.2c-0.5-0.2-0.9-0.6-1.1-1.2
			c-0.3-0.8-0.3-1.5-0.3-2.1c-0.5,0-1-0.3-1.3-0.7c-0.4-0.5-0.6-1.1-0.4-1.7c0-0.2,0.1-0.5,0.2-0.7c0,0-0.1,0.1-0.1,0.1
			c-0.8,0.5-1.8,0.4-2.4-0.4c-0.4-0.5-0.6-1.1-0.4-1.7c0.1-0.7,0.4-1.4,0.6-2.1c-0.3-0.1-0.5-0.3-0.7-0.5c-0.3-0.4-0.5-0.9-0.4-1.3
			c0.2-2,0.5-4.2,1.4-6.1c-0.9,0.3-1.9-0.1-2.4-0.9c-0.3-0.6-0.3-1.3,0.1-1.8c1.2-1.8,2.9-3.3,4.9-4.2c-0.1-0.3-0.2-0.6-0.2-0.9
			c0-0.7,0.4-1.2,1-1.5c1.9-0.8,3.6-1.4,5.2-1.6c-0.1-0.2-0.2-0.4-0.3-0.6c-0.3-0.6-0.4-1.3,0-1.9c0.5-0.8,1.6-1.2,2.6-0.8l0.3,0.1
			c0.7,0.3,1.4,0.6,2.2,0.9c0.7-2.3,2.9-3.8,5.7-3.8c0.7,0,1.4,0.1,2,0.3c0.8-0.4,1.7-0.2,2.3,0.4c1.6-1.1,3.4-1.8,5.7-2
			c0,0,0.1,0,0.2,0c0.7,0,1.4,0.4,1.7,1.2c0.2,0.5,0.2,1.1,0,1.6c1-0.1,2.2-0.1,3.4,0c0.6,0,1.1,0.4,1.5,0.8
			c0.1,0.2,0.2,0.4,0.3,0.6c0.6,0.1,1.2,0.3,1.8,0.6c0.4,0.2,0.7,0.6,0.9,1c1.2,0.2,2.2,0.6,3.2,1.2c0.5,0.3,0.8,0.8,0.9,1.4
			c0,0.2,0,0.4,0,0.5c1.2,0.7,2,1.8,2.6,3.3c0.2,0.4,0.2,1-0.1,1.4c-0.1,0.3-0.4,0.5-0.6,0.7c0.4,0.7,0.8,1.4,1.2,2.2
			c0.3,0.7,0.2,1.5-0.2,2.1c0,0.2,0.1,0.5,0.1,0.9c0,0.5-0.1,1-0.4,1.3c-0.4,0.4-0.9,0.6-1.5,0.6l0,0c-0.3,0-0.7-0.1-0.9-0.2
			c-1.2-0.7-2.2-1.5-3.2-2.3l-0.1,0c-0.4,0-0.8-0.3-1-0.7c0-0.1-0.1-0.1-0.1-0.2l-0.1-0.1c-0.4-0.3-0.7-0.8-0.8-1.3
			c-0.2-0.2-0.6-0.5-1.5-0.5c-4.2,0-12.9,6-15.9,8.4c-0.3,0.2-0.6,0.2-0.9,0.1c0,0-2.1-0.8-3.7-0.8c-0.6,0-1.1,0.1-1.2,0.3
			c-0.1,0.1-0.4,0.9,1.2,3.5c1,1.6,1.2,2.8,0.8,3.7c-0.5,1.2-1.9,1.4-3.1,1.6c-1.5,0.2-1.6,0.4-1.6,0.6c0.2,1.4-0.3,3.1-1.2,4.3
			C330.5,216.3,330.1,216.5,329.5,216.5z M326.8,213.8c0.4,0.3,1.8,0.9,2.6,0.9c0.5-0.8,0.8-1.9,0.7-2.8c-0.3-2.1,1.8-2.4,3.1-2.6
			c0.6-0.1,1.6-0.3,1.7-0.6c0-0.1,0.2-0.6-0.7-2c-1.5-2.5-1.9-4.2-1.2-5.4c0.3-0.6,1.1-1.3,2.8-1.3c1.4,0,3,0.5,3.8,0.7
			c2.1-1.6,11.4-8.4,16.6-8.4c1.8,0,2.7,0.8,3.2,1.5c0.1,0.2,0.2,0.4,0.2,0.5c0,0.1,0,0.1,0.1,0.1l0.2,0.2c0.1,0.1,0.2,0.2,0.3,0.3
			l0,0.1c0.1,0,0.3,0.1,0.4,0.2l0.4,0.3c1,0.8,1.9,1.5,3,2.1c0,0,0,0,0,0c0.1,0,0.1,0,0.2,0c-0.1-0.5-0.1-0.9-0.2-1.2
			c-0.1-0.4,0.1-0.7,0.4-0.9c0,0,0.1-0.1,0-0.2c-0.4-0.9-1-1.8-1.7-3c-0.2-0.2-0.2-0.6-0.1-0.8c0.1-0.3,0.3-0.5,0.6-0.5
			c0.1,0,0.3-0.1,0.4-0.1c0,0,0.1-0.1,0.1-0.1c-0.5-1.2-1.3-2.1-2.4-2.6c-0.3-0.1-0.5-0.4-0.5-0.7c-0.1-0.3,0-0.6,0.2-0.8
			c0,0,0-0.1,0-0.1c-1-0.6-1.9-0.9-3.2-1c-0.2,0-0.5-0.1-0.6-0.3s-0.2-0.4-0.2-0.7c0-0.1,0-0.1,0-0.1c-0.6-0.3-1.2-0.5-1.8-0.5
			c-0.3,0-0.5-0.2-0.7-0.4c-0.2-0.2-0.2-0.5-0.1-0.8c0,0-0.1-0.2-0.2-0.2c-1.5-0.1-2.9,0-4.8,0.3c-0.4,0.1-0.7-0.1-0.9-0.4
			c-0.2-0.3-0.2-0.7,0-1l0.8-1.3c0-0.1,0.1-0.1,0.1-0.2c0,0,0-0.1,0-0.2c-2.3,0.2-4,0.9-5.5,2.2c-0.2,0.2-0.5,0.3-0.8,0.2
			c-0.3-0.1-0.5-0.2-0.6-0.5l-0.2-0.4c0-0.1-0.1-0.1-0.2-0.1c-0.1,0-0.1,0-0.1,0c-0.2,0.2-0.6,0.3-0.9,0.2c-0.6-0.2-1.3-0.3-1.9-0.3
			c-1.7,0-3.9,0.9-4.2,3.3c0,0.3-0.2,0.5-0.4,0.7c-0.2,0.1-0.5,0.2-0.8,0.1c-1.1-0.4-2.2-0.8-3.3-1.3l-0.3-0.1c-0.2,0-0.2,0-0.2,0
			c0.3,0.6,0.7,1.1,1.2,1.7c0.2,0.3,0.2,0.6,0.1,0.9c-0.1,0.3-0.4,0.5-0.8,0.5c-1.9,0.1-3.9,0.6-6.2,1.6c0,0,0.1,0.1,0.1,0.1
			c0.1,0,0.1,0.1,0.2,0.1l0.1,0.1c0.3,0.2,0.5,0.5,0.5,0.9s-0.3,0.7-0.6,0.8c-2.1,0.8-4,2.2-5.3,4.1c0,0,0.1,0.1,0.1,0.1
			c0.9-0.5,1.8-0.9,3-1.2c0.4-0.1,0.8,0.1,1,0.4c0.2,0.4,0.2,0.8-0.1,1.1c-0.4,0.4-0.7,0.7-0.9,1.1c-1.3,1.8-1.6,4.4-1.9,6.6
			c0,0,0.1,0,0.1,0l0.3-0.2c0.3-0.2,0.8-0.2,1.1,0.1c0.3,0.3,0.4,0.7,0.2,1.1c-0.6,1-0.9,2-1.2,3.1c0,0.1,0.1,0.2,0.1,0.2
			c0.8-0.6,1.5-1,2.3-1.4c0.2-0.1,0.5-0.1,0.7,0c0.2,0.1,0.4,0.3,0.5,0.5c0,0,0,0.1,0,0.1c0.1,0.2,0.1,0.4,0,0.6
			c-0.3,0.8-0.6,1.7-0.8,2.6c0,0.1,0.1,0.2,0.1,0.2c0.2-0.2,0.4-0.3,0.6-0.5c0.3-0.2,0.8-0.3,1.1,0c0.3,0.2,0.5,0.6,0.3,1
			c-0.3,1-0.5,1.8-0.2,2.8c0,0.1,0.1,0.1,0.2,0.1c0.2,0,0.5,0.1,0.6,0.3C326.7,213.5,326.8,213.6,326.8,213.8z"/>
	</g>
</g>
<rect x="65.7" y="354.8" fill="#303E5C" width="588.1" height="6.1"/>
<g>
	<g>
		<g>
			<path fill="#BBEFF2" d="M569.4,114.7c-0.2,0-0.4,0-0.5,0c-1.2-3.5-4.6-6-8.5-6c-1.4,0-2.7,0.3-3.8,0.9c-1.6-2.4-4.3-3.9-7.4-3.9
				c-5,0-9,4-9,9c-5,0-9,4-9,9s4,9,9,9c1.9,0,3.7-0.6,5.2-1.6c1.5,2.8,4.5,4.7,7.9,4.7c4.3,0,7.8-3,8.8-6.9c1.6,2.3,4.3,3.9,7.4,3.9
				c5,0,9-4,9-9S574.3,114.7,569.4,114.7z"/>
			<path fill="#303E5C" d="M553.2,136.8c-3.3,0-6.4-1.6-8.2-4.3c-1.5,0.8-3.1,1.2-4.8,1.2c-5.5,0-10-4.5-10-10c0-5.2,4-9.5,9-10
				c0.5-5.1,4.8-9,10-9c3,0,5.9,1.4,7.8,3.7c1.1-0.4,2.3-0.6,3.5-0.6c4,0,7.6,2.4,9.2,5.9c5.5,0.1,9.9,4.6,9.9,10
				c0,5.5-4.5,10-10,10c-2.6,0-5.2-1-7-2.9C560.8,134.4,557.2,136.8,553.2,136.8z M545.3,130c0.1,0,0.2,0,0.2,0
				c0.3,0.1,0.5,0.3,0.7,0.5c1.4,2.6,4.1,4.2,7,4.2c3.7,0,6.9-2.5,7.7-6.1c0.1-0.4,0.4-0.7,0.8-0.8c0.4-0.1,0.8,0.1,1,0.4
				c1.5,2.2,3.9,3.4,6.6,3.4c4.4,0,8-3.6,8-8s-3.6-8-8-8c-0.1,0-0.2,0-0.3,0l-0.2,0c-0.5,0-0.9-0.3-1-0.7c-1.1-3.2-4.1-5.3-7.5-5.3
				c-1.2,0-2.3,0.3-3.4,0.8c-0.5,0.2-1,0.1-1.3-0.4c-1.5-2.2-3.9-3.5-6.6-3.5c-4.4,0-8,3.6-8,8c0,0.6-0.5,1-1,1c-4.4,0-8,3.6-8,8
				s3.6,8,8,8c1.6,0,3.2-0.5,4.6-1.4C544.9,130.1,545.1,130,545.3,130z"/>
		</g>
		<g>
			<path fill="#BBEFF2" d="M607.1,102.9c-0.1,0-0.2,0-0.3,0c-0.7-2-2.6-3.4-4.9-3.4c-0.8,0-1.5,0.2-2.2,0.5
				c-0.9-1.4-2.5-2.3-4.3-2.3c-2.9,0-5.2,2.3-5.2,5.2c-2.9,0-5.2,2.3-5.2,5.2s2.3,5.2,5.2,5.2c1.1,0,2.1-0.4,3-0.9
				c0.9,1.6,2.6,2.7,4.6,2.7c2.5,0,4.5-1.7,5-4c0.9,1.4,2.5,2.2,4.3,2.2c2.9,0,5.2-2.3,5.2-5.2S610,102.9,607.1,102.9z"/>
			<path fill="#303E5C" d="M597.8,116.1c-1.9,0-3.7-0.9-4.9-2.4c-0.8,0.4-1.7,0.6-2.7,0.6c-3.4,0-6.2-2.8-6.2-6.2
				c0-3.1,2.3-5.7,5.3-6.1c0.5-3,3-5.3,6.1-5.3c1.8,0,3.4,0.8,4.6,2c0.6-0.2,1.2-0.3,1.9-0.3c2.4,0,4.5,1.4,5.6,3.4
				c3.3,0.2,5.9,2.9,5.9,6.2c0,3.4-2.8,6.2-6.2,6.2c-1.4,0-2.8-0.5-3.9-1.4C602.1,114.9,600.1,116.1,597.8,116.1z M593.3,111.3
				c0.1,0,0.2,0,0.2,0c0.3,0.1,0.5,0.3,0.7,0.5c0.7,1.3,2.1,2.2,3.6,2.2c1.9,0,3.6-1.3,4-3.2c0.1-0.4,0.4-0.7,0.8-0.8
				c0.4-0.1,0.8,0.1,1,0.4c0.8,1.1,2.1,1.8,3.4,1.8c2.3,0,4.2-1.9,4.2-4.2s-1.9-4.2-4.2-4.2c-0.1,0-0.1,0-0.2,0
				c-0.5,0-1-0.2-1.1-0.7c-0.6-1.6-2.2-2.8-3.9-2.8c-0.6,0-1.2,0.1-1.8,0.4c-0.5,0.2-1,0.1-1.3-0.4c-0.8-1.1-2.1-1.8-3.4-1.8
				c-2.3,0-4.2,1.9-4.2,4.2c0,0.6-0.5,1-1,1c-2.3,0-4.2,1.9-4.2,4.2s1.9,4.2,4.2,4.2c0.9,0,1.7-0.3,2.4-0.8
				C592.8,111.4,593,111.3,593.3,111.3z"/>
		</g>
		<g>
			<path fill="#BBEFF2" d="M139.8,157.8c-0.2,0-0.4,0-0.5,0c-1.2-3.5-4.6-6-8.5-6c-1.4,0-2.7,0.3-3.8,0.9c-1.6-2.4-4.3-3.9-7.4-3.9
				c-5,0-9,4-9,9c-5,0-9,4-9,9s4,9,9,9c1.9,0,3.7-0.6,5.2-1.6c1.5,2.8,4.5,4.7,7.9,4.7c4.3,0,7.8-3,8.8-6.9c1.6,2.3,4.3,3.9,7.4,3.9
				c5,0,9-4,9-9S144.8,157.8,139.8,157.8z"/>
			<path fill="#303E5C" d="M123.6,179.9c-3.3,0-6.4-1.6-8.2-4.3c-1.5,0.8-3.1,1.2-4.8,1.2c-5.5,0-10-4.5-10-10c0-5.2,4-9.5,9-10
				c0.5-5.1,4.8-9,10-9c3,0,5.9,1.4,7.8,3.7c1.1-0.4,2.3-0.6,3.5-0.6c4,0,7.6,2.4,9.2,5.9c5.5,0.1,9.9,4.6,9.9,10
				c0,5.5-4.5,10-10,10c-2.6,0-5.2-1-7-2.9C131.2,177.5,127.6,179.9,123.6,179.9z M115.7,173.1c0.1,0,0.2,0,0.2,0
				c0.3,0.1,0.5,0.3,0.7,0.5c1.4,2.6,4.1,4.2,7,4.2c3.7,0,6.9-2.5,7.7-6.1c0.1-0.4,0.4-0.7,0.8-0.8c0.4-0.1,0.8,0.1,1,0.4
				c1.5,2.2,3.9,3.4,6.6,3.4c4.4,0,8-3.6,8-8s-3.6-8-8-8c-0.1,0-0.2,0-0.3,0l-0.2,0c-0.4,0-0.9-0.3-1-0.7c-1.1-3.2-4.1-5.3-7.5-5.3
				c-1.2,0-2.3,0.3-3.4,0.8c-0.5,0.2-1,0.1-1.3-0.4c-1.5-2.2-3.9-3.5-6.6-3.5c-4.4,0-8,3.6-8,8c0,0.6-0.5,1-1,1c-4.4,0-8,3.6-8,8
				s3.6,8,8,8c1.6,0,3.2-0.5,4.6-1.4C115.3,173.2,115.5,173.1,115.7,173.1z"/>
		</g>
		<g>
			<path fill="#BBEFF2" d="M188.1,52.1c-0.1,0-0.2,0-0.3,0c-0.7-2-2.6-3.4-4.9-3.4c-0.8,0-1.5,0.2-2.2,0.5c-0.9-1.4-2.5-2.3-4.3-2.3
				c-2.9,0-5.2,2.3-5.2,5.2c-2.9,0-5.2,2.3-5.2,5.2c0,2.9,2.3,5.2,5.2,5.2c1.1,0,2.1-0.4,3-0.9c0.9,1.6,2.6,2.7,4.6,2.7
				c2.5,0,4.5-1.7,5-4c0.9,1.4,2.5,2.2,4.3,2.2c2.9,0,5.2-2.3,5.2-5.2C193.3,54.4,191,52.1,188.1,52.1z"/>
			<path fill="#303E5C" d="M178.8,65.3c-1.9,0-3.7-0.9-4.9-2.4c-0.8,0.4-1.7,0.6-2.7,0.6c-3.4,0-6.2-2.8-6.2-6.2
				c0-3.1,2.3-5.7,5.3-6.1c0.5-3,3-5.3,6.1-5.3c1.8,0,3.4,0.8,4.6,2c0.6-0.2,1.2-0.3,1.9-0.3c2.4,0,4.5,1.4,5.6,3.4
				c3.3,0.2,5.9,2.9,5.9,6.2c0,3.4-2.8,6.2-6.2,6.2c-1.4,0-2.8-0.5-3.9-1.4C183.1,64,181.1,65.3,178.8,65.3z M174.2,60.5
				c0.1,0,0.2,0,0.2,0c0.3,0.1,0.5,0.3,0.7,0.5c0.7,1.3,2.1,2.2,3.6,2.2c1.9,0,3.6-1.3,4-3.2c0.1-0.4,0.4-0.7,0.8-0.8
				c0.4-0.1,0.8,0.1,1,0.4c0.8,1.1,2.1,1.8,3.4,1.8c2.3,0,4.2-1.9,4.2-4.2c0-2.3-1.9-4.2-4.2-4.2c-0.1,0-0.1,0-0.1,0
				c-0.5,0-1-0.2-1.1-0.7c-0.6-1.6-2.2-2.8-3.9-2.8c-0.6,0-1.2,0.1-1.8,0.4c-0.5,0.2-1,0.1-1.3-0.4c-0.8-1.1-2.1-1.8-3.4-1.8
				c-2.3,0-4.2,1.9-4.2,4.2c0,0.6-0.5,1-1,1c-2.3,0-4.2,1.9-4.2,4.2c0,2.3,1.9,4.2,4.2,4.2c0.9,0,1.7-0.3,2.4-0.8
				C173.8,60.6,174,60.5,174.2,60.5z"/>
		</g>
	</g>
	<g>
		<g>
			<path fill="#303E5C" d="M284.5,89.2l-6.1,1.1c-0.2-1.2-0.7-2.1-1.4-2.8c-0.7-0.6-1.7-0.9-2.8-0.9c-1.5,0-2.8,0.5-3.7,1.6
				c-0.9,1.1-1.4,2.8-1.4,5.3c0,2.8,0.5,4.7,1.4,5.9c0.9,1.1,2.2,1.7,3.8,1.7c1.2,0,2.1-0.3,2.9-1s1.3-1.8,1.6-3.4l6.1,1
				c-0.6,2.8-1.8,4.9-3.6,6.3c-1.8,1.4-4.2,2.1-7.2,2.1c-3.4,0-6.2-1.1-8.2-3.2c-2-2.2-3.1-5.1-3.1-9c0-3.9,1-6.9,3.1-9
				c2-2.2,4.8-3.2,8.3-3.2c2.8,0,5.1,0.6,6.8,1.8C282.5,84.8,283.7,86.7,284.5,89.2z"/>
			<path fill="#303E5C" d="M293.8,89.4l-5.6-1c0.6-2.3,1.7-3.9,3.3-5s3.8-1.6,6.9-1.6c2.8,0,4.8,0.3,6.2,1c1.4,0.7,2.3,1.5,2.9,2.5
				c0.6,1,0.8,2.9,0.8,5.5l-0.1,7.2c0,2.1,0.1,3.6,0.3,4.5s0.6,2,1.1,3.1h-6.1c-0.2-0.4-0.4-1-0.6-1.8c-0.1-0.4-0.2-0.6-0.2-0.7
				c-1.1,1-2.2,1.8-3.4,2.3c-1.2,0.5-2.5,0.8-3.9,0.8c-2.4,0-4.3-0.7-5.7-2c-1.4-1.3-2.1-3-2.1-5c0-1.3,0.3-2.5,0.9-3.5
				c0.6-1,1.5-1.8,2.7-2.4c1.1-0.6,2.8-1,4.9-1.4c2.9-0.5,4.9-1,6-1.5v-0.6c0-1.2-0.3-2-0.9-2.5c-0.6-0.5-1.7-0.8-3.3-0.8
				c-1.1,0-2,0.2-2.6,0.6C294.7,87.6,294.2,88.3,293.8,89.4z M302.1,94.4c-0.8,0.3-2,0.6-3.8,0.9c-1.7,0.4-2.8,0.7-3.4,1.1
				c-0.8,0.6-1.2,1.3-1.2,2.2c0,0.9,0.3,1.6,1,2.2c0.6,0.6,1.5,0.9,2.5,0.9c1.1,0,2.2-0.4,3.2-1.1c0.7-0.6,1.2-1.2,1.5-2
				c0.2-0.5,0.2-1.5,0.2-3V94.4z"/>
			<path fill="#303E5C" d="M320.2,105.7H314V82.3h5.8v3.3c1-1.6,1.9-2.6,2.7-3.1c0.8-0.5,1.7-0.7,2.7-0.7c1.4,0,2.8,0.4,4.1,1.2
				l-1.9,5.4c-1-0.7-2-1-2.9-1c-0.9,0-1.6,0.2-2.2,0.7c-0.6,0.5-1.1,1.3-1.4,2.6c-0.3,1.2-0.5,3.9-0.5,7.8V105.7z"/>
			<path fill="#303E5C" d="M331.6,82.3h5.8v3.4c0.7-1.2,1.8-2.1,3-2.9c1.3-0.7,2.7-1.1,4.3-1.1c2.7,0,5,1.1,6.9,3.2
				c1.9,2.1,2.8,5.1,2.8,8.9c0,3.9-1,6.9-2.9,9.1c-1.9,2.2-4.2,3.2-6.9,3.2c-1.3,0-2.5-0.3-3.5-0.8c-1-0.5-2.2-1.4-3.3-2.6v11.8
				h-6.2V82.3z M337.8,93.6c0,2.6,0.5,4.6,1.6,5.8c1,1.3,2.3,1.9,3.8,1.9c1.4,0,2.6-0.6,3.6-1.7c1-1.2,1.4-3,1.4-5.7
				c0-2.5-0.5-4.3-1.5-5.5c-1-1.2-2.2-1.8-3.7-1.8c-1.5,0-2.8,0.6-3.8,1.8C338.3,89.6,337.8,91.3,337.8,93.6z"/>
			<path fill="#303E5C" d="M357.9,93.6c0-2.1,0.5-4,1.5-6c1-1.9,2.4-3.4,4.3-4.4c1.9-1,3.9-1.5,6.2-1.5c3.5,0,6.4,1.1,8.7,3.4
				c2.3,2.3,3.4,5.2,3.4,8.7c0,3.5-1.1,6.5-3.4,8.8c-2.3,2.3-5.2,3.5-8.6,3.5c-2.1,0-4.2-0.5-6.1-1.5s-3.4-2.4-4.4-4.3
				C358.4,98.6,357.9,96.3,357.9,93.6z M364.3,94c0,2.3,0.6,4.1,1.7,5.3c1.1,1.2,2.5,1.9,4.1,1.9c1.6,0,3-0.6,4.1-1.9
				c1.1-1.2,1.6-3,1.6-5.4c0-2.3-0.5-4.1-1.6-5.3c-1.1-1.2-2.4-1.9-4.1-1.9c-1.6,0-3,0.6-4.1,1.9S364.3,91.6,364.3,94z"/>
			<path fill="#303E5C" d="M385.5,93.6c0-2.1,0.5-4,1.5-6c1-1.9,2.4-3.4,4.3-4.4c1.9-1,3.9-1.5,6.2-1.5c3.5,0,6.4,1.1,8.7,3.4
				c2.3,2.3,3.4,5.2,3.4,8.7c0,3.5-1.1,6.5-3.4,8.8c-2.3,2.3-5.2,3.5-8.6,3.5c-2.1,0-4.2-0.5-6.1-1.5s-3.4-2.4-4.4-4.3
				C386,98.6,385.5,96.3,385.5,93.6z M391.8,94c0,2.3,0.6,4.1,1.7,5.3c1.1,1.2,2.5,1.9,4.1,1.9c1.6,0,3-0.6,4.1-1.9
				c1.1-1.2,1.6-3,1.6-5.4c0-2.3-0.5-4.1-1.6-5.3c-1.1-1.2-2.4-1.9-4.1-1.9c-1.6,0-3,0.6-4.1,1.9S391.8,91.6,391.8,94z"/>
			<path fill="#303E5C" d="M414.5,105.7V73.4h6.2v32.3H414.5z"/>
		</g>
		<g>
			<rect x="431.2" y="89.3" fill="#303E5C" width="20.3" height="2.7"/>
			<rect x="431.2" y="95.3" fill="#303E5C" width="20.3" height="2.7"/>
		</g>
		<g>
			<rect x="231.6" y="89.3" fill="#303E5C" width="20.3" height="2.7"/>
			<rect x="231.6" y="95.3" fill="#303E5C" width="20.3" height="2.7"/>
		</g>
	</g>
	<g>
		<path fill="#303E5C" d="M511.3,177h-28c-0.6,0-1-0.4-1-1s0.4-1,1-1h28c0.6,0,1,0.4,1,1S511.9,177,511.3,177z"/>
		<path fill="#303E5C" d="M633.1,158.3h-28c-0.6,0-1-0.4-1-1s0.4-1,1-1h28c0.6,0,1,0.4,1,1S633.6,158.3,633.1,158.3z"/>
		<path fill="#303E5C" d="M93.7,115.6h-28c-0.6,0-1-0.4-1-1s0.4-1,1-1h28c0.6,0,1,0.4,1,1S94.2,115.6,93.7,115.6z"/>
		<path fill="#303E5C" d="M109.7,246H92.6c-0.6,0-1-0.4-1-1s0.4-1,1-1h17.1c0.6,0,1,0.4,1,1S110.2,246,109.7,246z"/>
		<path fill="#303E5C" d="M500.4,47.9h-17.1c-0.6,0-1-0.4-1-1s0.4-1,1-1h17.1c0.6,0,1,0.4,1,1S500.9,47.9,500.4,47.9z"/>
	</g>
</g>
<g>
	<g>
		<g>
			<path fill="#303E5C" d="M362.4,454.9c0.3,0,0.7,0.3,0.7,0.3l-5.7,11.8c-0.6,0-2.1,0.1-2.5,0.1c-0.3,0-0.7-0.3-0.7-0.3l-1.9-11.8
				c1.2,0,2.7-0.1,3.1-0.1c0.3,0,0.7,0.3,0.7,0.3l0.6,5.8c0.1,0.5,0.1,1.2,0,1.9c0.2-0.8,0.4-1.5,0.6-2.1l2.4-5.8
				C360.7,455,362,454.9,362.4,454.9L362.4,454.9z"/>
		</g>
		<g>
			<path fill="#303E5C" d="M368.3,460.7c0,1.3-0.7,2.1-2.6,2.5l-1.9,0.4c0.2,0.8,0.7,1.2,1.5,1.2c1.1,0,1.8-0.8,1.8-0.8
				s0.5,0.3,0.5,0.9c0,1.1-1.7,2.2-3.7,2.2c-2,0-3.3-1.2-3.3-3.3c0-2.4,1.7-5.6,4.8-5.6C367.2,458.2,368.3,459.2,368.3,460.7
				L368.3,460.7z M365,461.9c0.4-0.1,0.5-0.5,0.5-0.8c0-0.4-0.1-0.9-0.5-0.9c-0.8,0-1.1,1.2-1.2,2.1L365,461.9z"/>
		</g>
		<g>
			<path fill="#303E5C" d="M373.5,458.2c1.6,0,2.7,0.8,2.7,1.9c0,1.3-1.6,1.8-1.6,1.8s-0.5-1.4-1.6-1.4c-0.7,0-1.2,0.7-1.2,2.3
				c0,1.4,0.4,2.1,1.3,2.1c1,0,1.6-0.6,1.6-0.6s0.5,0.3,0.5,0.9c0,1-1.6,2.1-3.5,2.1c-2,0-3.3-1.2-3.3-3.3
				C368.5,461.5,370.3,458.2,373.5,458.2L373.5,458.2z"/>
		</g>
		<g>
			<path fill="#303E5C" d="M381,456.3c0.4,0,0.6,0.3,0.6,0.3l-0.3,1.8h2l-0.4,1.4c-0.1,0.4-0.4,0.7-0.8,0.7h-1l-0.6,3.5
				c-0.1,0.6,0,0.8,0.4,0.8c0.4,0,0.7-0.2,0.7-0.2s0.5,0.3,0.5,0.9c0,0.9-1.3,1.7-2.9,1.7c-1.7,0-2.4-1-2.1-2.8l0.6-3.9h-1.1
				l0.5-1.4c0.1-0.4,0.4-0.6,0.8-0.6h0.5l0.6-1.7C379.9,456.6,380.6,456.3,381,456.3L381,456.3z"/>
		</g>
		<g>
			<path fill="#303E5C" d="M390.5,460.7c0,1.3-0.7,2.1-2.6,2.5l-1.9,0.4c0.2,0.8,0.7,1.2,1.5,1.2c1.1,0,1.8-0.8,1.8-0.8
				s0.5,0.3,0.5,0.9c0,1.1-1.7,2.2-3.7,2.2c-2,0-3.3-1.2-3.3-3.3c0-2.4,1.7-5.6,4.8-5.6C389.5,458.2,390.5,459.2,390.5,460.7
				L390.5,460.7z M387.3,461.9c0.4-0.1,0.5-0.5,0.5-0.8c0-0.4-0.1-0.9-0.5-0.9c-0.8,0-1.1,1.2-1.2,2.1L387.3,461.9z"/>
		</g>
		<g>
			<path fill="#303E5C" d="M398.4,460.7c0,1.3-0.7,2.1-2.6,2.5l-1.9,0.4c0.1,0.8,0.7,1.2,1.5,1.2c1.1,0,1.8-0.8,1.8-0.8
				s0.5,0.3,0.5,0.9c0,1.1-1.7,2.2-3.7,2.2c-2,0-3.3-1.2-3.3-3.3c0-2.4,1.7-5.6,4.8-5.6C397.3,458.2,398.4,459.2,398.4,460.7
				L398.4,460.7z M395.1,461.9c0.4-0.1,0.5-0.5,0.5-0.8c0-0.4-0.1-0.9-0.5-0.9c-0.8,0-1.1,1.2-1.2,2.1L395.1,461.9z"/>
		</g>
		<g>
			<path fill="#303E5C" d="M404.8,463.9c0,0,0.7,0.6,0.7,1.6c0,1.3-1.1,1.7-2.1,1.7c-1.3,0-2.2-0.6-3.1-0.9
				c-0.3,0.3-0.5,0.6-0.8,0.9c0,0-1.4,0-1.4-1c0-1.1,2-3.1,4.1-5.3c-0.2,0-0.5-0.1-0.7-0.1c-1.2,0-1.7,0.6-1.7,0.6s-0.6-0.7-0.6-1.6
				c0.1-1.2,1.3-1.6,2.2-1.6c1,0,1.8,0.4,2.5,0.7l0.6-0.7c0,0,1.4,0,1.4,1c0,1.1-1.9,3-3.9,5.2c0.4,0.1,0.8,0.2,1.2,0.2
				C404.3,464.6,404.8,463.9,404.8,463.9L404.8,463.9z"/>
		</g>
		<g>
			<path fill="#303E5C" d="M414,466.4c-0.5,3-2.6,4.5-5.3,4.5c-1.7,0-3-0.9-3-1.9c0-0.7,0.6-1,0.6-1s0.6,0.5,1.7,0.5
				c1.1,0,2.5-0.4,2.8-2l0.2-1.2c-0.7,1-1.7,1.8-2.9,1.8c-1.4,0-2-1.1-1.6-3.3l0.4-2.4c0.2-1.5,0.3-2.6,0.3-2.6
				c1-0.2,2.2-0.6,2.7-0.6c0.3,0,0.7,0.3,0.7,0.3l-0.5,3l-0.4,2.8c0,0.3,0,0.4,0.2,0.4c1.1,0,1.8-3.1,1.8-3.1
				c0.2-1.5,0.3-2.6,0.3-2.6c1-0.2,2.2-0.6,2.7-0.6c0.3,0,0.7,0.3,0.7,0.3l-0.5,3L414,466.4z"/>
		</g>
	</g>
	<g>
		<path fill="#303E5C" d="M283.2,458.7h3c0.7,0,1.2,0.1,1.6,0.2c0.5,0.1,0.9,0.4,1.2,0.7c0.3,0.4,0.6,0.8,0.8,1.3
			c0.2,0.5,0.3,1.1,0.3,1.9c0,0.7-0.1,1.2-0.3,1.7c-0.2,0.6-0.5,1.1-0.9,1.4c-0.3,0.3-0.7,0.5-1.2,0.6c-0.4,0.1-0.9,0.2-1.5,0.2
			h-3.1V458.7z M284.9,460.1v5.3h1.2c0.5,0,0.8,0,1-0.1c0.3-0.1,0.5-0.2,0.7-0.3c0.2-0.2,0.3-0.4,0.4-0.8c0.1-0.4,0.2-0.8,0.2-1.5
			s-0.1-1.1-0.2-1.4c-0.1-0.3-0.3-0.6-0.5-0.8c-0.2-0.2-0.5-0.3-0.8-0.4c-0.2-0.1-0.7-0.1-1.4-0.1H284.9z"/>
		<path fill="#303E5C" d="M294.7,464.9l1.6,0.3c-0.2,0.6-0.5,1-1,1.3c-0.4,0.3-1,0.4-1.6,0.4c-1,0-1.8-0.3-2.3-1
			c-0.4-0.5-0.6-1.2-0.6-2c0-1,0.3-1.7,0.8-2.3s1.2-0.8,2-0.8c0.9,0,1.6,0.3,2.1,0.9c0.5,0.6,0.8,1.4,0.7,2.6h-4
			c0,0.5,0.1,0.8,0.4,1.1c0.2,0.3,0.5,0.4,0.9,0.4c0.2,0,0.5-0.1,0.6-0.2C294.5,465.4,294.7,465.2,294.7,464.9z M294.8,463.3
			c0-0.4-0.1-0.8-0.4-1s-0.5-0.3-0.8-0.3c-0.3,0-0.6,0.1-0.9,0.4s-0.3,0.6-0.3,1H294.8z"/>
		<path fill="#303E5C" d="M296.9,465.1l1.6-0.2c0.1,0.3,0.2,0.5,0.4,0.7c0.2,0.2,0.5,0.2,0.9,0.2c0.4,0,0.7-0.1,0.9-0.2
			c0.1-0.1,0.2-0.2,0.2-0.4c0-0.1,0-0.2-0.1-0.3c-0.1-0.1-0.3-0.1-0.5-0.2c-1.3-0.3-2.1-0.5-2.4-0.7c-0.5-0.3-0.7-0.7-0.7-1.3
			c0-0.5,0.2-0.9,0.6-1.3c0.4-0.3,1-0.5,1.9-0.5c0.8,0,1.4,0.1,1.8,0.4c0.4,0.3,0.7,0.6,0.8,1.1l-1.5,0.3c-0.1-0.2-0.2-0.4-0.4-0.5
			c-0.2-0.1-0.4-0.2-0.8-0.2c-0.4,0-0.7,0.1-0.9,0.2c-0.1,0.1-0.2,0.2-0.2,0.3c0,0.1,0.1,0.2,0.2,0.3c0.1,0.1,0.6,0.2,1.5,0.4
			c0.8,0.2,1.4,0.4,1.8,0.7c0.3,0.3,0.5,0.7,0.5,1.1c0,0.5-0.2,1-0.7,1.4c-0.5,0.4-1.1,0.6-2,0.6c-0.8,0-1.5-0.2-1.9-0.5
			C297.4,466,297.1,465.6,296.9,465.1z"/>
		<path fill="#303E5C" d="M303.6,460.1v-1.4h1.6v1.4H303.6z M303.6,466.7v-5.8h1.6v5.8H303.6z"/>
		<path fill="#303E5C" d="M306.4,467.1l1.8,0.2c0,0.2,0.1,0.3,0.2,0.4c0.2,0.1,0.4,0.2,0.7,0.2c0.4,0,0.7-0.1,0.9-0.2
			c0.1-0.1,0.2-0.2,0.3-0.4c0-0.1,0.1-0.4,0.1-0.7v-0.8c-0.5,0.6-1.1,0.9-1.8,0.9c-0.8,0-1.4-0.3-1.9-1c-0.4-0.5-0.5-1.2-0.5-1.9
			c0-1,0.2-1.7,0.7-2.2c0.5-0.5,1.1-0.8,1.8-0.8c0.7,0,1.3,0.3,1.8,0.9v-0.8h1.5v5.2c0,0.7-0.1,1.2-0.2,1.5
			c-0.1,0.3-0.3,0.6-0.5,0.8c-0.2,0.2-0.5,0.3-0.8,0.5s-0.8,0.2-1.3,0.2c-1,0-1.7-0.2-2.2-0.5c-0.4-0.3-0.6-0.8-0.6-1.3
			C306.4,467.2,306.4,467.2,306.4,467.1z M307.9,463.7c0,0.6,0.1,1.1,0.4,1.4c0.2,0.3,0.5,0.4,0.9,0.4c0.4,0,0.7-0.1,1-0.4
			c0.3-0.3,0.4-0.7,0.4-1.3c0-0.6-0.1-1-0.4-1.3c-0.3-0.3-0.6-0.4-1-0.4c-0.4,0-0.7,0.1-0.9,0.4C308,462.7,307.9,463.1,307.9,463.7z
			"/>
		<path fill="#303E5C" d="M318.8,466.7h-1.6v-3c0-0.6,0-1-0.1-1.2c-0.1-0.2-0.2-0.3-0.3-0.4c-0.1-0.1-0.3-0.2-0.5-0.2
			c-0.3,0-0.5,0.1-0.7,0.2c-0.2,0.1-0.4,0.3-0.4,0.6c-0.1,0.2-0.1,0.7-0.1,1.3v2.6h-1.6v-5.8h1.5v0.9c0.5-0.7,1.2-1,2-1
			c0.3,0,0.7,0.1,1,0.2c0.3,0.1,0.5,0.3,0.7,0.5c0.1,0.2,0.3,0.4,0.3,0.6c0.1,0.2,0.1,0.6,0.1,1V466.7z"/>
		<path fill="#303E5C" d="M323.6,464.9l1.6,0.3c-0.2,0.6-0.5,1-1,1.3c-0.4,0.3-1,0.4-1.6,0.4c-1,0-1.8-0.3-2.3-1
			c-0.4-0.5-0.6-1.2-0.6-2c0-1,0.3-1.7,0.8-2.3c0.5-0.5,1.2-0.8,2-0.8c0.9,0,1.6,0.3,2.1,0.9c0.5,0.6,0.8,1.4,0.7,2.6h-4
			c0,0.5,0.1,0.8,0.4,1.1c0.2,0.3,0.5,0.4,0.9,0.4c0.2,0,0.5-0.1,0.6-0.2S323.5,465.2,323.6,464.9z M323.7,463.3
			c0-0.4-0.1-0.8-0.4-1c-0.2-0.2-0.5-0.3-0.8-0.3c-0.3,0-0.6,0.1-0.9,0.4s-0.3,0.6-0.3,1H323.7z"/>
		<path fill="#303E5C" d="M331.8,466.7h-1.5v-0.9c-0.2,0.3-0.5,0.6-0.9,0.7c-0.3,0.2-0.7,0.2-1,0.2c-0.7,0-1.3-0.3-1.8-0.8
			c-0.5-0.5-0.7-1.3-0.7-2.2c0-1,0.2-1.7,0.7-2.2c0.5-0.5,1.1-0.8,1.8-0.8c0.7,0,1.2,0.3,1.7,0.8v-2.9h1.6V466.7z M327.6,463.7
			c0,0.6,0.1,1.1,0.3,1.3c0.3,0.4,0.6,0.6,1.1,0.6c0.4,0,0.7-0.2,0.9-0.4c0.3-0.3,0.4-0.7,0.4-1.3c0-0.7-0.1-1.1-0.4-1.4
			c-0.2-0.3-0.6-0.4-0.9-0.4c-0.4,0-0.7,0.1-0.9,0.4C327.7,462.7,327.6,463.1,327.6,463.7z"/>
		<path fill="#303E5C" d="M336,466.7v-8h1.6v2.9c0.5-0.5,1.1-0.8,1.7-0.8c0.7,0,1.3,0.3,1.8,0.8c0.5,0.5,0.7,1.2,0.7,2.2
			c0,1-0.2,1.8-0.7,2.3c-0.5,0.5-1.1,0.8-1.8,0.8c-0.3,0-0.7-0.1-1-0.2c-0.3-0.2-0.6-0.4-0.9-0.7v0.9H336z M337.6,463.7
			c0,0.6,0.1,1,0.3,1.3c0.3,0.4,0.6,0.6,1.1,0.6c0.3,0,0.6-0.1,0.9-0.4s0.4-0.7,0.4-1.4c0-0.7-0.1-1.1-0.4-1.4
			c-0.2-0.3-0.6-0.4-0.9-0.4c-0.4,0-0.7,0.1-0.9,0.4S337.6,463.1,337.6,463.7z"/>
		<path fill="#303E5C" d="M348,460.4c-0.4,0-0.7,0.2-0.9,0.5h-0.5l-1.4,4.1l-1.4-4.1h-1.7l2.3,5.8c-0.1,0.3-0.2,0.6-0.4,0.8
			c-0.2,0.2-0.4,0.3-0.8,0.3c-0.2,0-0.4,0-0.7-0.1l0.1,1.2c0.3,0.1,0.6,0.1,0.9,0.1c0.3,0,0.6,0,0.8-0.1c0.2-0.1,0.4-0.1,0.6-0.3
			s0.3-0.3,0.4-0.4c0.1-0.2,0.3-0.4,0.4-0.8l0.4-1l1.5-4c0.1,0,0.2,0.1,0.3,0.1C349.4,462.6,349.4,460.4,348,460.4z"/>
	</g>
</g>
</svg>
