<?xml version="1.0" encoding="UTF-8"?>
<svg id="Layer_1" data-name="Layer 1" xmlns="http://www.w3.org/2000/svg" viewBox="0 0 1080 1080">
  <defs>
    <style>
      .cls-1 {
        fill: #191933;
      }
    </style>
  </defs>
  <path class="cls-1" d="m270.91,517.06c0,2.34-.47,4.54-1.42,6.6-.95,2.06-2.25,3.86-3.89,5.41-1.65,1.55-3.56,2.79-5.74,3.7-2.18.92-4.51,1.38-6.98,1.38s-4.65-.46-6.74-1.38c-2.09-.92-3.94-2.15-5.56-3.7-1.61-1.55-2.88-3.35-3.8-5.41-.92-2.06-1.38-4.26-1.38-6.6s.46-4.65,1.38-6.74c.92-2.09,2.18-3.92,3.8-5.51,1.61-1.58,3.47-2.82,5.56-3.7,2.09-.89,4.34-1.33,6.74-1.33s4.8.44,6.98,1.33c2.18.89,4.1,2.12,5.74,3.7,1.65,1.58,2.94,3.42,3.89,5.51.95,2.09,1.42,4.34,1.42,6.74Zm-3.42,26.97v54.95h-29.44v-54.95h29.44Z"/>
  <path class="cls-1" d="m362.25,523.87c-.89,1.08-1.74,1.93-2.56,2.56-.82.63-1.99.95-3.51.95s-2.77-.35-3.94-1.04c-1.17-.7-2.49-1.47-3.94-2.33-1.46-.85-3.17-1.63-5.13-2.33-1.96-.7-4.4-1.04-7.31-1.04-3.61,0-6.73.67-9.35,1.99-2.63,1.33-4.8,3.23-6.5,5.7-1.71,2.47-2.98,5.49-3.8,9.07-.82,3.58-1.23,7.61-1.23,12.11,0,9.43,1.82,16.68,5.46,21.74,3.64,5.07,8.66,7.6,15.05,7.6,3.42,0,6.13-.43,8.12-1.28,1.99-.85,3.69-1.8,5.08-2.85,1.39-1.04,2.67-2.01,3.85-2.9,1.17-.89,2.64-1.33,4.42-1.33,2.34,0,4.11.85,5.32,2.56l8.55,10.54c-3.04,3.48-6.24,6.31-9.59,8.5-3.36,2.18-6.79,3.89-10.3,5.13-3.51,1.23-7.04,2.09-10.59,2.56-3.55.47-7,.71-10.35.71-6.01,0-11.76-1.14-17.23-3.42-5.48-2.28-10.29-5.59-14.43-9.92-4.15-4.34-7.44-9.67-9.88-16-2.44-6.33-3.66-13.55-3.66-21.65,0-7.09,1.06-13.72,3.18-19.89,2.12-6.17,5.25-11.52,9.4-16.05,4.15-4.52,9.27-8.09,15.38-10.68,6.11-2.6,13.18-3.89,21.22-3.89s14.5,1.23,20.32,3.7c5.82,2.47,11.08,6.08,15.76,10.83l-7.79,10.35Z"/>
  <path class="cls-1" d="m412.96,500.9v41.53h4.37c1.84,0,3.24-.25,4.23-.76.98-.51,7.23-11.75,8.12-13.08l13.29-23.34c1.08-1.65,2.36-2.85,3.85-3.61,1.49-.76,3.37-1.14,5.65-1.14h26.97l-25.45,35.04c-1.2,1.65-2.52,3.1-3.94,4.37-1.42,1.27-2.96,2.41-4.61,3.42,2.85,2.15,5.32,5,7.41,8.55l27.73,47.1h-26.59c-2.22,0-4.13-.36-5.74-1.09-1.61-.73-2.93-2.01-3.94-3.85l-18.61-34.85c-.48-.86-1.01-2.22-1.4-3.28s-1.19-1.93-2.24-2.39c-1.32-.57-3.03-1.19-4.24-1.19h-3.96l-.89,46.64h-29.44v-98.08h29.44Z"/>
  <path class="cls-1" d="m492.91,598.98v-98.47h18.23c1.84,0,3.37.41,4.61,1.23,1.23.82,2.1,2.06,2.61,3.7l1.61,5.32c1.65-1.71,3.35-3.28,5.13-4.7,1.77-1.42,3.69-2.66,5.74-3.7,2.06-1.04,4.27-1.87,6.65-2.47,2.37-.6,4.99-.9,7.83-.9,5.95,0,10.87,1.54,14.77,4.61,3.89,3.07,6.85,7.17,8.88,12.3,1.65-3.04,3.66-5.63,6.03-7.79,2.37-2.15,4.94-3.89,7.69-5.22,2.75-1.33,5.66-2.31,8.74-2.94,3.07-.63,6.12-.95,9.16-.95,5.63,0,10.64.84,15,2.52,4.37,1.68,8.02,4.12,10.97,7.31,2.94,3.2,5.18,7.12,6.69,11.77,1.52,4.65,2.28,9.92,2.28,15.81v62.58h-29.44v-62.58c0-10.19-4.37-15.29-13.1-15.29-3.99,0-7.3,1.31-9.92,3.94s-3.94,6.41-3.94,11.35v62.58h-29.44v-62.58c0-5.63-1.11-9.59-3.32-11.87-2.22-2.28-5.48-3.42-9.78-3.42-2.66,0-5.18.6-7.55,1.8-2.37,1.2-4.61,2.82-6.69,4.84v71.22h-29.44Z"/>
  <path class="cls-1" d="m698.59,498.99c6.52,0,12.49,1.01,17.9,3.04,5.41,2.03,10.07,4.97,13.96,8.83,3.89,3.86,6.93,8.59,9.12,14.2s3.28,11.95,3.28,19.04c0,2.22-.09,4.02-.28,5.41-.19,1.39-.54,2.5-1.04,3.32-.51.82-1.19,1.39-2.04,1.71-.85.32-1.95.47-3.28.47h-56.78c.95,8.23,3.45,14.2,7.5,17.9,4.05,3.7,9.27,5.56,15.67,5.56,3.42,0,6.36-.41,8.83-1.23,2.47-.82,4.67-1.74,6.6-2.75,1.93-1.01,3.7-1.93,5.32-2.75,1.61-.82,3.31-1.23,5.08-1.23,2.34,0,4.11.85,5.32,2.56l8.55,10.54c-3.04,3.48-6.31,6.31-9.83,8.5-3.51,2.18-7.12,3.89-10.83,5.13-3.7,1.23-7.41,2.09-11.11,2.56-3.7.47-7.23.71-10.59.71-6.9,0-13.37-1.12-19.42-3.37-6.05-2.25-11.33-5.59-15.86-10.02-4.53-4.43-8.1-9.94-10.73-16.52-2.63-6.58-3.94-14.24-3.94-22.98,0-6.58,1.12-12.82,3.37-18.71,2.25-5.89,5.47-11.05,9.69-15.48,4.21-4.43,9.31-7.94,15.29-10.54,5.98-2.6,12.74-3.89,20.27-3.89Zm.57,20.32c-5.64,0-10.03,1.6-13.2,4.8-3.17,3.2-5.26,7.8-6.27,13.82h36.75c0-2.34-.3-4.62-.9-6.84-.6-2.21-1.58-4.19-2.94-5.93-1.36-1.74-3.15-3.15-5.37-4.23-2.22-1.08-4.91-1.61-8.07-1.61Z"/>
  <path class="cls-1" d="m787.27,500.51v62.48c0,4.88,1.11,8.64,3.32,11.3,2.21,2.66,5.47,3.99,9.78,3.99,3.23,0,6.25-.66,9.07-1.99,2.82-1.33,5.56-3.2,8.21-5.6v-70.17h29.44v98.47h-18.23c-3.67,0-6.08-1.65-7.22-4.94l-1.8-5.7c-1.9,1.84-3.86,3.5-5.89,4.99-2.03,1.49-4.19,2.75-6.5,3.8-2.31,1.04-4.79,1.87-7.45,2.47-2.66.6-5.57.9-8.74.9-5.38,0-10.15-.94-14.29-2.8-4.15-1.87-7.64-4.48-10.49-7.83-2.85-3.35-5-7.31-6.46-11.87-1.46-4.56-2.18-9.56-2.18-15v-62.48h29.44Z"/>
  <path class="cls-1" d="m901.98,552.74v46.24h-32.1v-138.35h48.81c9.75,0,18.12,1.16,25.12,3.47,6.99,2.31,12.76,5.49,17.28,9.54,4.53,4.05,7.87,8.83,10.02,14.34,2.15,5.51,3.23,11.46,3.23,17.85,0,6.9-1.11,13.23-3.32,18.99-2.22,5.76-5.6,10.7-10.16,14.81-4.56,4.12-10.34,7.33-17.33,9.64-7,2.31-15.27,3.47-24.83,3.47h-16.71Zm0-24.21h16.71c8.36,0,14.37-1.99,18.04-5.98,3.67-3.99,5.51-9.56,5.51-16.71,0-3.16-.47-6.04-1.42-8.64-.95-2.6-2.39-4.83-4.32-6.69-1.93-1.87-4.37-3.31-7.31-4.32-2.94-1.01-6.44-1.52-10.49-1.52h-16.71v43.87Z"/>
  <path class="cls-1" d="m177.09,551.75v46.24h32.1v-138.35h-48.81c-9.75,0-18.12,1.16-25.12,3.47-6.99,2.31-12.76,5.49-17.28,9.54-4.53,4.05-7.87,8.83-10.02,14.34-2.15,5.51-3.23,11.46-3.23,17.85,0,6.9,1.11,13.23,3.32,18.99,2.22,5.76,5.6,10.7,10.16,14.81,4.56,4.12,10.34,7.33,17.33,9.64,7,2.31,15.27,3.47,24.83,3.47h16.71Zm0-24.21h-16.71c-8.36,0-14.37-1.99-18.04-5.98-3.67-3.99-5.51-9.56-5.51-16.71,0-3.16.47-6.04,1.42-8.64.95-2.6,2.39-4.83,4.32-6.69,1.93-1.87,4.37-3.31,7.31-4.32,2.94-1.01,6.44-1.52,10.49-1.52h16.71v43.87Z"/>
</svg>